<?xml version="1.0" encoding="UTF-8" standalone="no"?>
<!-- Created with Inkscape (http://www.inkscape.org/) -->

<svg
   xmlns:dc="http://purl.org/dc/elements/1.1/"
   xmlns:cc="http://creativecommons.org/ns#"
   xmlns:rdf="http://www.w3.org/1999/02/22-rdf-syntax-ns#"
   xmlns:svg="http://www.w3.org/2000/svg"
   xmlns="http://www.w3.org/2000/svg"
   xmlns:sodipodi="http://sodipodi.sourceforge.net/DTD/sodipodi-0.dtd"
   xmlns:inkscape="http://www.inkscape.org/namespaces/inkscape"
   width="179.9371mm"
   height="33.854061mm"
   viewBox="0 0 179.9371 33.854061"
   version="1.1"
   id="svg8"
   inkscape:version="0.92.3 (2405546, 2018-03-11)"
   sodipodi:docname="gray_category_selector.svg">
  <defs
     id="defs2" />
  <sodipodi:namedview
     id="base"
     pagecolor="#ffffff"
     bordercolor="#666666"
     borderopacity="1.0"
     inkscape:pageopacity="0.0"
     inkscape:pageshadow="2"
     inkscape:zoom="1.4"
     inkscape:cx="217.69504"
     inkscape:cy="-112.52699"
     inkscape:document-units="mm"
     inkscape:current-layer="layer1"
     showgrid="false"
     inkscape:window-width="2560"
     inkscape:window-height="1352"
     inkscape:window-x="22"
     inkscape:window-y="72"
     inkscape:window-maximized="0"
     fit-margin-top="0"
     fit-margin-left="0"
     fit-margin-right="0"
     fit-margin-bottom="0" />
  <metadata
     id="metadata5">
    <rdf:RDF>
      <cc:Work
         rdf:about="">
        <dc:format>image/svg+xml</dc:format>
        <dc:type
           rdf:resource="http://purl.org/dc/dcmitype/StillImage" />
        <dc:title></dc:title>
      </cc:Work>
    </rdf:RDF>
  </metadata>
  <g
     inkscape:label="Layer 1"
     inkscape:groupmode="layer"
     id="layer1"
     transform="translate(570.67655,523.24919)">
    <g
       id="g1099">
      <path
         inkscape:connector-curvature="0"
         id="path857"
         d="m -545.90916,-504.68386 c -0.073,-0.0217 -0.23854,-0.0706 -0.36791,-0.10862 -0.12938,-0.038 -0.28136,-0.0827 -0.33775,-0.0992 -0.10853,-0.0319 -0.3581,-0.10435 -0.65741,-0.19087 -0.0995,-0.0288 -0.22979,-0.0667 -0.2895,-0.0844 -0.0597,-0.0176 -0.20899,-0.0613 -0.33172,-0.0971 -0.74704,-0.21752 -0.92488,-0.26947 -1.31779,-0.38494 -0.17806,-0.0523 -0.33385,-0.0977 -1.2455,-0.36289 -0.43013,-0.12511 -0.58222,-0.16956 -0.74185,-0.21681 -0.0829,-0.0246 -0.21321,-0.0625 -0.2895,-0.0843 -0.0763,-0.0218 -0.20657,-0.0598 -0.2895,-0.0843 -0.0829,-0.0245 -0.19681,-0.058 -0.25306,-0.0744 -0.0563,-0.0164 -0.10359,-0.0311 -0.1052,-0.0327 -0.003,-0.003 0.0185,-0.0796 0.13492,-0.47807 0.0654,-0.2241 0.0905,-0.30965 0.15908,-0.54282 0.0437,-0.14847 0.0742,-0.2532 0.18965,-0.65138 0.10323,-0.35586 0.20567,-0.70641 0.26617,-0.91072 0.0584,-0.19716 0.20683,-0.70661 0.2777,-0.95294 0.0272,-0.0946 0.0988,-0.33942 0.18339,-0.62725 0.0234,-0.0796 0.085,-0.29131 0.13691,-0.47045 0.0519,-0.17912 0.11699,-0.40167 0.14464,-0.49456 0.0276,-0.0929 0.06,-0.20416 0.0718,-0.24728 0.0118,-0.0431 0.0361,-0.12726 0.0538,-0.18697 0.0391,-0.13148 0.0712,-0.24093 0.14529,-0.49457 0.031,-0.10615 0.0754,-0.25814 0.0988,-0.33775 0.0233,-0.0796 0.0558,-0.19089 0.0722,-0.24728 0.0343,-0.11791 0.19849,-0.68183 0.26347,-0.90469 0.0242,-0.0829 0.0732,-0.2512 0.10899,-0.37394 0.11053,-0.37934 0.15842,-0.54307 0.20466,-0.69963 0.0245,-0.0829 0.0605,-0.20506 0.0801,-0.2714 0.0196,-0.0664 0.0375,-0.12877 0.0399,-0.13873 0.002,-0.01 0.029,-0.10222 0.0592,-0.20506 0.069,-0.23511 0.18978,-0.6488 0.24478,-0.83834 0.0559,-0.19261 0.14395,-0.49429 0.18135,-0.62122 0.0167,-0.0564 0.0481,-0.16496 0.0701,-0.24126 0.0219,-0.0763 0.071,-0.24456 0.10901,-0.37394 0.038,-0.12936 0.095,-0.32374 0.12655,-0.43193 0.0316,-0.1082 0.0593,-0.19867 0.0617,-0.20106 0.006,-0.006 0.0811,0.0142 0.37825,0.10141 0.13932,0.0409 0.3103,0.0908 0.37997,0.11098 0.0697,0.0202 0.15923,0.0466 0.19903,0.0587 0.0398,0.0121 0.12937,0.0386 0.19903,0.0588 0.0697,0.0202 0.20266,0.0592 0.29553,0.0867 0.0929,0.0275 0.25031,0.0734 0.34982,0.10205 0.0995,0.0287 0.22979,0.0665 0.2895,0.0841 0.28603,0.0843 0.56933,0.1665 0.59107,0.17159 0.0132,0.003 0.0567,0.0157 0.0965,0.0279 0.0398,0.0123 0.10065,0.0304 0.1352,0.0403 l 0.0628,0.018 0.23096,-0.38219 c 0.12702,-0.2102 0.24324,-0.40118 0.25825,-0.42441 0.015,-0.0232 0.0563,-0.0911 0.0917,-0.15077 0.0354,-0.0597 0.0761,-0.12585 0.0904,-0.14697 l 0.026,-0.0384 0.27007,0.16304 c 0.32671,0.19722 0.65218,0.39487 0.75862,0.46069 0.0431,0.0267 0.14082,0.0862 0.21712,0.1322 0.0763,0.046 0.25271,0.15298 0.39203,0.23764 0.13932,0.0847 0.33202,0.20122 0.42822,0.25904 0.1457,0.0876 0.30717,0.18614 0.53679,0.32771 0.0199,0.0123 0.0392,0.0224 0.043,0.0224 0.009,5e-5 0.0323,-0.0217 0.21638,-0.19874 0.12655,-0.12172 0.60932,-0.58345 0.69393,-0.66369 0.063,-0.0598 0.0535,-0.0634 0.18254,0.0694 0.19698,0.20276 0.36193,0.37459 0.39658,0.41313 0.0179,0.0199 0.0797,0.085 0.13741,0.14475 0.0577,0.0597 0.29952,0.31212 0.5374,0.56091 0.23788,0.24879 0.49267,0.51482 0.5662,0.59119 0.0735,0.0764 0.23681,0.24726 0.36286,0.37976 0.12605,0.13251 0.28936,0.30344 0.3629,0.37985 0.0735,0.0764 0.19567,0.20405 0.2714,0.28364 0.0757,0.0796 0.20545,0.2153 0.28825,0.30157 0.14471,0.15077 0.20322,0.21189 0.50799,0.53078 0.14419,0.15088 0.35294,0.36891 0.56012,0.58503 0.0668,0.0697 0.1835,0.1918 0.25937,0.27141 0.0759,0.0796 0.15643,0.16336 0.17899,0.18611 l 0.041,0.0414 -0.11964,0.11545 c -0.0658,0.0635 -0.17115,0.1643 -0.23411,0.22401 -0.10419,0.0988 -0.46229,0.44125 -0.78208,0.74788 -0.0692,0.0664 -0.13476,0.12877 -0.14571,0.13872 -0.0109,0.01 -0.0902,0.086 -0.17599,0.16901 -0.0858,0.083 -0.27005,0.25938 -0.40937,0.39195 -0.13933,0.13257 -0.32394,0.30893 -0.41026,0.3919 -0.1408,0.13535 -0.4455,0.42675 -0.83822,0.80163 -0.1514,0.14452 -0.35937,0.34389 -0.58515,0.56096 -0.0797,0.0766 -0.25875,0.24784 -0.39793,0.38053 -0.13919,0.13269 -0.31555,0.3011 -0.39192,0.37427 -0.25467,0.24396 -0.35551,0.34029 -0.41025,0.39187 -0.0299,0.0281 -0.16828,0.16054 -0.3076,0.29424 -0.28244,0.27104 -0.80404,0.77033 -0.98953,0.94721 -0.22251,0.21219 -0.41274,0.39433 -0.83795,0.80234 -0.10995,0.10551 -0.49625,0.47446 -0.68059,0.65005 -0.0337,0.0321 -0.10739,0.10289 -0.16378,0.15735 -0.10274,0.0992 -0.49408,0.47363 -0.89661,0.85788 -0.11815,0.11278 -0.21852,0.20596 -0.22303,0.20706 -0.004,0.001 -0.0679,-0.0158 -0.1409,-0.0375 z m 0.27108,-0.65808 c 0.003,-0.003 0.077,-0.0739 0.16338,-0.15681 0.0864,-0.0829 0.21392,-0.20475 0.28347,-0.2707 0.0695,-0.066 0.19175,-0.18266 0.27157,-0.25935 0.0798,-0.0767 0.21009,-0.20152 0.2895,-0.27744 0.16329,-0.15609 0.36586,-0.35039 0.57867,-0.55505 0.0796,-0.0766 0.20196,-0.19353 0.27182,-0.25987 0.0698,-0.0664 0.19468,-0.18529 0.27739,-0.26433 0.0827,-0.079 0.19652,-0.18771 0.2529,-0.24149 0.32639,-0.31131 0.40847,-0.38988 0.56749,-0.54327 0.0965,-0.0931 0.22949,-0.22041 0.29553,-0.28296 0.066,-0.0625 0.18251,-0.17365 0.2588,-0.24689 0.0763,-0.0732 0.19844,-0.19048 0.27141,-0.26055 0.20373,-0.19559 0.73378,-0.70232 1.07256,-1.02537 0.17383,-0.16575 0.3899,-0.37232 0.54952,-0.52535 0.0765,-0.0733 0.20405,-0.19545 0.2835,-0.2714 0.0794,-0.0759 0.21242,-0.20391 0.29553,-0.28435 0.0831,-0.0804 0.16737,-0.16101 0.18727,-0.17905 0.0353,-0.0319 0.35309,-0.3352 0.65763,-0.62747 0.083,-0.0797 0.21604,-0.20707 0.29553,-0.28305 0.0795,-0.076 0.2071,-0.1981 0.28358,-0.2714 0.0765,-0.0733 0.25831,-0.24714 0.40409,-0.3863 0.14578,-0.13916 0.31052,-0.29704 0.36608,-0.35084 l 0.10103,-0.0978 -0.26914,-0.28246 c -0.14802,-0.15534 -0.34276,-0.3587 -0.43274,-0.45192 -0.09,-0.0932 -0.26675,-0.27771 -0.3928,-0.41 -0.21537,-0.22602 -0.33718,-0.35334 -0.62725,-0.65563 -0.0664,-0.0692 -0.12877,-0.13465 -0.13872,-0.14559 -0.01,-0.0109 -0.1348,-0.14127 -0.27744,-0.28964 -0.14264,-0.14836 -0.27292,-0.28423 -0.2895,-0.30192 -0.0166,-0.0177 -0.136,-0.14299 -0.26538,-0.27843 -0.22147,-0.23185 -0.34179,-0.35714 -0.63829,-0.6646 -0.13903,-0.14418 -0.1608,-0.17135 -0.14837,-0.18514 0.005,-0.006 0.002,-0.006 -0.006,-10e-4 -0.008,0.005 -0.11662,-0.0992 -0.26538,-0.2544 -0.13832,-0.14428 -0.25563,-0.26415 -0.26068,-0.26639 -0.005,-0.002 -0.12971,0.11176 -0.27703,0.25332 -0.14732,0.14156 -0.27668,0.26552 -0.28745,0.27547 -0.0108,0.01 -0.0872,0.0832 -0.16993,0.16285 -0.0827,0.0796 -0.20976,0.20142 -0.28238,0.2707 -0.26314,0.25103 -0.36403,0.34749 -0.5182,0.49542 -0.0863,0.0829 -0.21126,0.20219 -0.27761,0.26522 -0.10666,0.10133 -0.26233,0.25017 -0.80739,0.77201 -0.0797,0.0763 -0.22096,0.21213 -0.31393,0.30186 -0.093,0.0897 -0.34545,0.33128 -0.56107,0.53678 -0.21562,0.2055 -0.45435,0.43335 -0.53051,0.50633 -0.0762,0.073 -0.20644,0.19773 -0.2895,0.27723 -0.0831,0.0795 -0.19988,0.19151 -0.25959,0.2489 -0.0597,0.0574 -0.12484,0.11899 -0.14475,0.1369 -0.0199,0.0179 -0.10149,0.0959 -0.18129,0.1733 -0.0798,0.0774 -0.20738,0.20004 -0.28347,0.27253 -0.0761,0.0725 -0.20086,0.1919 -0.27723,0.26538 -0.0764,0.0735 -0.25005,0.23942 -0.38594,0.3688 -0.1359,0.12937 -0.31225,0.29787 -0.3919,0.37445 -0.0796,0.0766 -0.20723,0.19853 -0.28352,0.27102 -0.0763,0.0725 -0.19843,0.18933 -0.27141,0.25963 -0.073,0.0703 -0.19511,0.18749 -0.2714,0.2604 -0.0763,0.0729 -0.19519,0.18655 -0.26421,0.25252 -0.069,0.066 -0.14264,0.13623 -0.16362,0.15614 -0.021,0.0199 -0.0948,0.0908 -0.16402,0.15746 -0.0692,0.0667 -0.26158,0.25105 -0.42744,0.40967 -0.16586,0.15862 -0.30156,0.29191 -0.30156,0.29619 0,0.0109 0.091,0.1104 0.27506,0.30071 0.17796,0.18403 0.29176,0.30272 0.65366,0.68173 0.13926,0.14585 0.31568,0.33034 0.39203,0.40998 0.0763,0.0796 0.19804,0.20719 0.27043,0.28347 0.0724,0.0763 0.19181,0.20111 0.26537,0.27742 0.0736,0.0763 0.19321,0.20115 0.26585,0.27744 0.0727,0.0763 0.18951,0.1984 0.25969,0.27138 0.0702,0.073 0.18689,0.19511 0.25933,0.27141 0.0725,0.0763 0.19458,0.20385 0.27141,0.28346 0.0768,0.0796 0.20174,0.20989 0.27759,0.28951 0.0759,0.0796 0.19784,0.20718 0.27108,0.28347 0.0732,0.0763 0.22506,0.23524 0.33737,0.3532 l 0.20422,0.21449 0.0548,-0.0516 c 0.0302,-0.0284 0.0577,-0.0543 0.0611,-0.0577 z m 0.38106,-1.04522 c -0.12185,-0.11139 -0.30545,-0.17785 -0.4893,-0.17711 -0.17118,7e-4 -0.34082,0.0612 -0.46407,0.16551 l -0.0479,0.0405 -0.15107,-0.15832 c -0.27624,-0.2895 -0.42632,-0.4462 -0.59109,-0.61715 -0.0898,-0.0931 -0.26633,-0.2774 -0.39239,-0.4095 -0.12605,-0.1321 -0.23733,-0.24869 -0.24728,-0.25909 -0.01,-0.0104 -0.13448,-0.14098 -0.27672,-0.29014 -0.24798,-0.26004 -0.49117,-0.51338 -0.66562,-0.69339 l -0.0818,-0.0845 0.0601,-0.0724 c 0.18588,-0.22371 0.22069,-0.53677 0.0899,-0.808 -0.0224,-0.0465 -0.0602,-0.10715 -0.0838,-0.13469 l -0.043,-0.0501 0.24418,-0.23259 c 0.13429,-0.12792 0.31488,-0.30081 0.40131,-0.38419 0.0864,-0.0834 0.22485,-0.21642 0.3076,-0.29562 0.0827,-0.0792 0.20201,-0.19355 0.26504,-0.25411 0.063,-0.0606 0.30458,-0.29124 0.53678,-0.51262 0.23221,-0.22138 0.49547,-0.47271 0.58504,-0.55852 0.0896,-0.0858 0.1864,-0.17844 0.21519,-0.20585 l 0.0524,-0.0499 -0.0204,0.0483 c -0.23808,0.56275 -0.26733,1.27684 -0.0764,1.86366 0.0745,0.22877 0.20881,0.50123 0.34299,0.69557 0.43028,0.62322 1.08661,1.03066 1.84444,1.14504 0.19555,0.0295 0.56165,0.03 0.75392,7e-4 0.16372,-0.0247 0.34169,-0.0672 0.4901,-0.11699 l 0.10699,-0.0359 -0.0844,0.0814 c -0.0465,0.0448 -0.14415,0.13845 -0.21713,0.20816 -0.073,0.0697 -0.26012,0.24885 -0.41587,0.39808 -0.15576,0.14923 -0.33733,0.3229 -0.40351,0.38592 -0.0662,0.063 -0.183,0.17454 -0.25963,0.2478 -0.0766,0.0733 -0.20445,0.19525 -0.28406,0.27107 -0.0796,0.0758 -0.20989,0.20058 -0.2895,0.27726 -0.15353,0.14786 -0.42917,0.41207 -0.44046,0.42218 -0.003,0.003 -0.0526,0.0504 -0.10883,0.10473 l -0.10209,0.0987 z m 1.77554,-3.30302 -0.27288,-0.26773 0.0432,-0.0433 0.0433,-0.0433 0.0637,0.0471 c 0.3336,0.24645 0.65084,0.24163 0.99998,-0.0152 l 0.0842,-0.062 -0.55436,-0.54683 c -0.33098,-0.32648 -0.56341,-0.54683 -0.57681,-0.54683 -0.0123,0 -0.0641,0.0104 -0.11492,0.0233 -0.24749,0.0623 -0.59968,0.10387 -0.78202,0.0924 -0.21813,-0.0137 -0.38357,-0.0885 -0.57497,-0.25998 -0.0934,-0.0837 -0.19138,-0.26778 -0.21847,-0.41062 -0.0499,-0.26308 0.01,-0.51474 0.18373,-0.77134 l 0.0772,-0.114 -0.0876,-0.0829 -0.0876,-0.0829 0.0623,-0.0623 0.0623,-0.0623 0.0883,0.0877 c 0.087,0.0865 0.0886,0.0874 0.10999,0.0637 0.0475,-0.0524 0.2479,-0.19478 0.34471,-0.24478 0.12624,-0.0652 0.40084,-0.19059 0.41663,-0.19025 0.006,1.3e-4 0.13915,0.12453 0.29506,0.27644 l 0.28347,0.27619 -0.0385,0.0392 -0.0384,0.0392 -0.0641,-0.049 c -0.29854,-0.22818 -0.56218,-0.2843 -0.81101,-0.17266 -0.0869,0.0389 -0.23273,0.1295 -0.2577,0.15994 -0.0135,0.0163 0.0485,0.0825 0.45611,0.48758 0.25938,0.25778 0.4795,0.47046 0.48914,0.47262 0.0153,0.003 0.25795,-0.0335 0.464,-0.0706 0.0368,-0.006 0.14534,-0.02 0.24126,-0.0297 0.40972,-0.0417 0.58993,-0.0128 0.79771,0.12778 0.14822,0.10029 0.27484,0.25801 0.33569,0.41815 0.0715,0.18817 0.0792,0.45349 0.0185,0.64211 -0.0428,0.13313 -0.11172,0.27092 -0.18803,0.37584 -0.0336,0.0462 -0.0643,0.0923 -0.0681,0.10243 -0.005,0.0124 0.0309,0.0566 0.1089,0.13499 l 0.11598,0.11652 -0.055,0.0573 c -0.0302,0.0315 -0.0593,0.0573 -0.0645,0.0573 -0.006,0 -0.0625,-0.052 -0.12717,-0.11557 l -0.11766,-0.11558 -0.0497,0.0471 c -0.17053,0.16178 -0.46082,0.34963 -0.70784,0.45804 l -0.055,0.0241 z m 1.12707,-0.58233 c 0.11369,-0.18797 0.14046,-0.32462 0.10052,-0.5131 -0.0697,-0.3287 -0.33914,-0.51945 -0.70142,-0.49645 -0.11231,0.007 -0.39764,0.048 -0.43733,0.0627 -0.0254,0.009 0.015,0.0524 0.48296,0.51322 0.28089,0.27661 0.5113,0.50294 0.51202,0.50294 7e-4,10e-6 0.0202,-0.0312 0.0433,-0.0694 z m -1.87358,-1.30017 c 0.0705,-0.0102 0.13572,-0.0212 0.14492,-0.0244 0.0104,-0.003 -0.14721,-0.16751 -0.42219,-0.43874 l -0.4389,-0.43289 -0.0264,0.032 c -0.0145,0.0176 -0.0496,0.0774 -0.078,0.13282 -0.0496,0.0968 -0.0516,0.10514 -0.052,0.2117 -4.2e-4,0.1043 0.002,0.11645 0.0449,0.20256 0.0329,0.0666 0.0657,0.1106 0.12038,0.16115 0.16749,0.15506 0.38324,0.20256 0.70734,0.15571 z m 3.17473,1.21291 c 0.0514,-0.12632 0.11416,-0.34946 0.14592,-0.51887 0.0254,-0.13543 0.0282,-0.18397 0.0275,-0.47648 -7e-4,-0.30281 -0.003,-0.3373 -0.0331,-0.49107 -0.10247,-0.52246 -0.34691,-0.99308 -0.71226,-1.37137 -0.6363,-0.65882 -1.55191,-0.9469 -2.45587,-0.7727 -0.12856,0.0248 -0.36274,0.0889 -0.40273,0.11023 -0.068,0.0363 -0.0207,-0.0133 0.3477,-0.3648 0.0795,-0.0759 0.21796,-0.20858 0.3076,-0.29487 0.0896,-0.0863 0.27968,-0.26839 0.42232,-0.40466 0.14264,-0.13628 0.38148,-0.36448 0.53075,-0.50712 0.14928,-0.14264 0.4044,-0.38632 0.56694,-0.54151 0.16254,-0.15519 0.31417,-0.30024 0.33696,-0.32232 l 0.0414,-0.0401 0.037,0.0347 c 0.25283,0.23691 0.68272,0.25833 0.95373,0.0475 0.0265,-0.0206 0.0543,-0.0421 0.0618,-0.0478 0.009,-0.007 0.0881,0.0683 0.22871,0.21613 0.11836,0.12449 0.32438,0.34034 0.45784,0.47966 0.13346,0.13933 0.25852,0.27033 0.27791,0.29112 0.0446,0.0478 0.46912,0.49097 0.66865,0.69801 0.20964,0.21755 0.59164,0.61666 0.69567,0.72686 l 0.0866,0.0917 -0.0538,0.0598 c -0.0591,0.0657 -0.12445,0.19232 -0.15592,0.30206 -0.0154,0.0538 -0.019,0.10297 -0.0151,0.20507 0.007,0.18463 0.0526,0.3084 0.16694,0.45439 l 0.0334,0.0426 -0.0502,0.0481 c -0.0276,0.0264 -0.17507,0.16716 -0.32767,0.31275 -0.15259,0.1456 -0.39363,0.37621 -0.53564,0.51245 -0.14202,0.13625 -0.27282,0.2613 -0.29066,0.27789 -0.0395,0.0367 -0.23447,0.22297 -0.42226,0.4034 -0.19212,0.18459 -0.64511,0.61758 -0.78315,0.74857 -0.0629,0.0597 -0.12805,0.12349 -0.14474,0.14174 -0.0167,0.0182 -0.034,0.0332 -0.0384,0.0332 -0.004,0 0.007,-0.0379 0.0262,-0.0842 z m -6.34658,4.72426 c -0.25638,-0.15488 -0.69236,-0.41977 -0.95199,-0.57838 -0.16501,-0.10079 -0.11147,-0.0822 -0.85644,-0.29772 -0.14264,-0.0413 -0.28377,-0.0831 -0.31363,-0.0929 -0.0299,-0.01 -0.0814,-0.0251 -0.11459,-0.0338 -0.0331,-0.009 -0.12817,-0.036 -0.21109,-0.0605 -0.0829,-0.0245 -0.23493,-0.0687 -0.33776,-0.0984 -0.10283,-0.0296 -0.19093,-0.0577 -0.19577,-0.0625 -0.005,-0.005 -0.003,-0.0303 0.004,-0.0566 0.008,-0.0281 0.0109,-0.10487 0.008,-0.1866 -0.006,-0.1536 -0.0284,-0.23386 -0.0966,-0.34758 -0.043,-0.0718 -0.0386,-0.0685 -0.31678,-0.23802 -0.10615,-0.0647 -0.25782,-0.15758 -0.33704,-0.20644 -0.0792,-0.0488 -0.14772,-0.0847 -0.15223,-0.0797 -0.004,0.005 -0.0473,0.14486 -0.095,0.31072 -0.0478,0.16587 -0.0968,0.33413 -0.10909,0.37395 -0.0123,0.0398 -0.0395,0.13208 -0.0605,0.20506 -0.021,0.073 -0.0493,0.16709 -0.0627,0.20914 -0.0135,0.0422 -0.0198,0.0808 -0.0141,0.0862 0.006,0.006 0.0864,0.0315 0.17927,0.0581 0.0929,0.0266 0.23672,0.0685 0.31966,0.093 0.0829,0.0246 0.2132,0.0625 0.2895,0.0843 0.20783,0.0595 1.56939,0.45685 1.94809,0.56858 0.22692,0.0669 0.35664,0.10481 0.67551,0.19711 0.13932,0.0403 0.30759,0.0893 0.37394,0.10893 0.46101,0.13605 0.65284,0.19173 0.66248,0.19228 0.006,2.9e-4 -0.0997,-0.0663 -0.23521,-0.14817 z m 0.45875,-0.23417 c -0.0229,-0.0249 -0.10686,-0.11308 -0.18673,-0.19601 -0.0799,-0.0829 -0.25088,-0.26193 -0.38003,-0.39777 -0.49959,-0.52549 -0.45632,-0.48634 -0.70168,-0.63496 -0.47302,-0.2865 -1.03132,-0.62506 -1.07997,-0.65487 -0.0281,-0.0172 -0.11223,-0.0681 -0.18697,-0.11309 -0.19989,-0.1203 -0.18488,-0.0973 -0.13662,-0.20895 0.0489,-0.113 0.0688,-0.25652 0.0534,-0.38413 -0.0189,-0.15634 -0.0346,-0.18476 -0.19519,-0.35333 -0.29943,-0.31427 -0.43695,-0.45578 -0.45248,-0.46565 -0.0204,-0.013 -0.013,-0.0238 -0.21783,0.31594 -0.0946,0.1569 -0.2103,0.34769 -0.25707,0.42399 -0.0467,0.0763 -0.10709,0.17629 -0.13405,0.2222 l -0.049,0.0835 0.0276,0.019 c 0.0258,0.0178 0.1816,0.11273 1.04434,0.63646 0.18577,0.11277 0.49246,0.29907 0.68154,0.41399 0.18908,0.11493 0.46863,0.28453 0.62122,0.37689 0.15259,0.0924 0.32901,0.2 0.39203,0.23922 0.063,0.0392 0.15259,0.0932 0.19903,0.12005 0.0465,0.0268 0.17672,0.10549 0.2895,0.17482 0.37265,0.22909 0.69623,0.42497 0.70502,0.4268 0.003,5.6e-4 -0.0133,-0.0192 -0.0361,-0.0442 z m -3.93214,-3.15737 c 0.15735,-0.26006 0.27809,-0.45873 0.32253,-0.53075 0.0123,-0.0199 0.0887,-0.14549 0.16979,-0.27909 0.15908,-0.26206 0.14058,-0.2166 0.27412,-0.67385 0.031,-0.10615 0.0699,-0.23914 0.0865,-0.29553 0.0166,-0.0564 0.0512,-0.17519 0.0769,-0.264 0.0258,-0.0888 0.0485,-0.16319 0.0506,-0.1653 0.002,-0.002 0.0136,0.0543 0.0254,0.12527 0.0241,0.14431 0.0552,0.28139 0.067,0.29472 0.004,0.005 0.0381,-0.0413 0.0752,-0.10254 0.0371,-0.0612 0.16131,-0.26601 0.27605,-0.45509 0.32342,-0.53293 0.32216,-0.53066 0.33759,-0.60772 0.0169,-0.0844 0.0214,-0.0799 -0.11751,-0.11818 -0.0549,-0.0151 -0.0998,-0.0334 -0.0998,-0.0407 0,-0.0197 0.038,-0.13049 0.0489,-0.14253 0.006,-0.006 0.0596,0.004 0.12183,0.0217 0.0838,0.024 0.11361,0.0284 0.11734,0.0173 0.0112,-0.0337 0.10029,-0.19685 0.14257,-0.26118 0.0532,-0.081 0.20784,-0.23708 0.27712,-0.27977 0.0362,-0.0223 0.067,-0.0609 0.12079,-0.15079 0.0398,-0.0664 0.14169,-0.23485 0.22658,-0.37417 0.23963,-0.39331 0.39126,-0.64319 0.44903,-0.73997 0.0291,-0.0488 0.0611,-0.10118 0.0712,-0.11658 l 0.0183,-0.028 -0.0821,0.0182 c -0.15509,0.0343 -0.41377,0.12731 -0.57958,0.20844 -0.31537,0.15432 -0.58109,0.35627 -0.83399,0.63382 -0.0423,0.0465 -0.0737,0.0736 -0.0697,0.0603 0.004,-0.0133 0.0207,-0.0703 0.0371,-0.12666 0.0164,-0.0564 0.0433,-0.14867 0.0599,-0.20506 0.0166,-0.0564 0.0445,-0.15139 0.0621,-0.2111 0.0316,-0.10764 0.0796,-0.27232 0.22846,-0.78406 0.1872,-0.64374 0.29462,-1.01166 0.3645,-1.24848 0.0166,-0.0564 0.0482,-0.16495 0.0701,-0.24125 0.0778,-0.27103 0.17724,-0.6092 0.17988,-0.61196 10e-4,-0.001 0.0213,0.003 0.044,0.009 0.0227,0.006 0.10013,0.0118 0.17198,0.0118 0.10633,0 0.14688,-0.006 0.21791,-0.0293 0.22407,-0.0752 0.40503,-0.24764 0.47881,-0.45622 0.009,-0.0249 0.0228,-0.0453 0.0311,-0.0453 0.008,0 0.0574,0.0133 0.10916,0.0295 0.0517,0.0162 0.19724,0.0593 0.32329,0.0958 0.20788,0.0601 0.68768,0.20045 0.76857,0.22478 0.0311,0.009 0.0356,0.005 0.0884,-0.0827 0.0307,-0.0509 0.0798,-0.13261 0.10934,-0.18162 0.0295,-0.049 0.0522,-0.0905 0.0503,-0.0923 -0.002,-10e-4 -0.18523,-0.0557 -0.40748,-0.11975 -0.22225,-0.0642 -0.43666,-0.1267 -0.47647,-0.13904 -0.0398,-0.0123 -0.17009,-0.0503 -0.2895,-0.0846 -0.11942,-0.0342 -0.2497,-0.0721 -0.2895,-0.0843 -0.0398,-0.0122 -0.12938,-0.0388 -0.19903,-0.059 -0.0697,-0.0203 -0.24608,-0.0717 -0.39204,-0.11435 -0.37206,-0.10868 -0.40622,-0.11817 -0.41031,-0.11396 -0.002,0.002 -0.0116,0.0336 -0.0214,0.0701 -0.01,0.0365 -0.037,0.13148 -0.0605,0.21109 -0.0438,0.14839 -0.13225,0.45082 -0.1852,0.63328 -0.0164,0.0564 -0.0544,0.18667 -0.0845,0.2895 -0.0301,0.10283 -0.0753,0.25754 -0.10057,0.34379 -0.0252,0.0863 -0.0763,0.2613 -0.11346,0.38901 -0.0372,0.12772 -0.098,0.3367 -0.1352,0.46441 -0.0987,0.33925 -0.15364,0.52674 -0.20392,0.69661 -0.0246,0.0829 -0.0625,0.21321 -0.0844,0.2895 -0.0219,0.0763 -0.0534,0.18486 -0.07,0.24126 -0.0167,0.0564 -0.0611,0.20838 -0.0987,0.33774 -0.0377,0.12938 -0.1391,0.47678 -0.22544,0.77201 -0.0863,0.29523 -0.17491,0.59921 -0.19682,0.6755 -0.0219,0.0763 -0.0535,0.18486 -0.0701,0.24126 -0.0547,0.1853 -0.16637,0.56801 -0.24995,0.85644 -0.0452,0.1559 -0.14817,0.50873 -0.22886,0.78406 -0.0807,0.27533 -0.17021,0.58202 -0.19892,0.68153 -0.0556,0.19265 -0.0857,0.29582 -0.15683,0.53679 -0.0245,0.0829 -0.0572,0.1942 -0.0728,0.24728 -0.0156,0.0531 -0.0428,0.14535 -0.0605,0.20506 -0.0508,0.17114 -0.0652,0.22759 -0.055,0.21591 0.005,-0.006 0.0817,-0.13026 0.16996,-0.27622 z m 1.24277,-1.10985 c 0.0763,-0.0735 0.20932,-0.20124 0.2956,-0.28389 0.0863,-0.0826 0.27356,-0.26227 0.41616,-0.39916 l 0.25928,-0.24891 0.17627,-0.29391 c 0.097,-0.16165 0.21951,-0.36448 0.27235,-0.45072 0.0529,-0.0863 0.10379,-0.17035 0.11322,-0.18689 0.009,-0.0165 0.0275,-0.0437 0.04,-0.0603 l 0.0228,-0.0302 -0.007,0.0301 c -0.0171,0.075 -0.0346,0.42505 -0.021,0.41985 0.006,-0.002 0.12839,-0.11763 0.27344,-0.25689 0.14506,-0.13925 0.3153,-0.30269 0.37833,-0.36319 0.063,-0.0605 0.14913,-0.14196 0.19134,-0.18105 0.0514,-0.0476 0.0899,-0.0971 0.11644,-0.14988 l 0.0397,-0.0788 -0.10137,-0.0598 c -0.0558,-0.0329 -0.10136,-0.0648 -0.10136,-0.0709 0,-0.008 0.0563,-0.10541 0.0804,-0.13854 0.002,-0.003 0.0503,0.0233 0.10757,0.0575 l 0.10414,0.0623 0.0497,-0.0575 c 0.14332,-0.16611 0.30191,-0.28548 0.46887,-0.3529 0.0921,-0.0372 0.11797,-0.055 0.21109,-0.14509 0.0584,-0.0565 0.23922,-0.23019 0.40184,-0.386 0.71938,-0.68923 0.64682,-0.6149 0.60126,-0.61588 -0.0223,-4.3e-4 -0.0622,-0.002 -0.0888,-0.003 -0.10356,-0.006 -0.38067,0.0161 -0.51266,0.0398 -0.34744,0.0624 -0.7204,0.2077 -0.98697,0.38445 -0.0618,0.041 -0.1153,0.0745 -0.11879,0.0745 -0.003,0 0.004,-0.0176 0.0175,-0.0392 0.0131,-0.0216 0.0932,-0.15319 0.17793,-0.29252 0.0848,-0.13932 0.19263,-0.31707 0.23972,-0.395 0.0471,-0.0779 0.0992,-0.16359 0.11578,-0.19034 0.0166,-0.0268 0.11787,-0.19368 0.22507,-0.37096 0.1072,-0.17728 0.21663,-0.35761 0.24319,-0.40073 0.0832,-0.13515 0.2723,-0.44762 0.30216,-0.49935 0.0157,-0.0272 0.0462,-0.0766 0.0678,-0.10981 0.0216,-0.0332 0.11936,-0.1933 0.21723,-0.35584 0.21175,-0.35166 0.24809,-0.41013 0.25493,-0.41013 0.003,0 0.031,0.0131 0.0626,0.0291 0.10248,0.0519 0.19192,0.0717 0.32175,0.0712 0.14356,-5.7e-4 0.20781,-0.0145 0.32353,-0.0698 0.11876,-0.0568 0.25729,-0.17752 0.30823,-0.26855 0.011,-0.0197 0.11989,0.0399 0.42285,0.23163 0.19369,0.12254 0.69202,0.41735 0.7003,0.41428 0.0228,-0.008 0.3012,-0.27831 0.29592,-0.28687 -0.003,-0.005 -0.0805,-0.0542 -0.17185,-0.109 -0.0914,-0.0548 -0.1851,-0.11173 -0.20832,-0.12644 -0.0801,-0.0508 -0.81189,-0.49543 -0.91555,-0.55636 -0.0412,-0.0242 -0.25035,-0.15138 -0.68481,-0.4164 -0.10729,-0.0655 -0.19957,-0.11883 -0.20506,-0.11864 -0.006,1.5e-4 -0.0295,0.0341 -0.0532,0.0754 -0.0237,0.0413 -0.0977,0.16459 -0.16436,0.27406 -0.20299,0.33348 -0.41602,0.684 -0.85039,1.39925 -0.12288,0.20236 -0.29266,0.48191 -0.37729,0.62123 -0.22968,0.37815 -0.24706,0.40677 -0.46499,0.76597 -0.28703,0.47305 -0.52306,0.86103 -0.63844,1.04944 -0.0549,0.0896 -0.1092,0.17913 -0.12079,0.19903 -0.0432,0.0742 -0.0963,0.16203 -0.21146,0.34981 -0.0651,0.10616 -0.14112,0.23101 -0.16892,0.27745 -0.0278,0.0464 -0.13633,0.22557 -0.24115,0.39806 -0.21842,0.35945 -0.27784,0.45748 -0.40946,0.6755 -0.052,0.0863 -0.11558,0.18841 -0.14115,0.22703 -0.0256,0.0386 -0.0465,0.0722 -0.0465,0.0746 0,0.006 -0.37261,0.6213 -0.39948,0.65917 -0.0125,0.0176 -0.0227,0.0348 -0.0227,0.0382 0,0.003 -0.0361,0.0651 -0.0802,0.13685 -0.0441,0.0718 -0.10296,0.16861 -0.13081,0.21505 -0.0914,0.15246 -0.35709,0.58796 -0.39682,0.65047 -0.0644,0.10123 -0.0638,0.10008 -0.0368,0.0797 0.0129,-0.01 0.0858,-0.0778 0.16214,-0.15129 z"
         style="fill:#89a02c;stroke-width:0.01206255" />
      <path
         inkscape:connector-curvature="0"
         d="m -555.75573,-510.19079 -1.62433,9.34338 -3.94283,0.0833 -0.84687,-4.7064 -0.84687,4.34544 -3.94283,0.13883 -1.63822,-8.92688 3.44304,-0.30544 0.69415,5.48387 0.93018,-5.06737 h 2.70722 l 1.08289,5.13678 0.55533,-5.83094 z"
         style="font-style:normal;font-variant:normal;font-weight:normal;font-stretch:normal;font-size:medium;line-height:1.25;font-family:'Luckiest Guy';-inkscape-font-specification:'Luckiest Guy, Normal';font-variant-ligatures:normal;font-variant-caps:normal;font-variant-numeric:normal;font-feature-settings:normal;text-align:start;letter-spacing:0px;word-spacing:0px;writing-mode:lr-tb;text-anchor:start;fill:#ffffff;fill-opacity:1;stroke:none;stroke-width:0.35541055"
         id="path827-1" />
      <path
         inkscape:connector-curvature="0"
         d="m -546.77331,-505.87312 q 0,0.63169 -0.14577,1.22172 -0.14577,0.5831 -0.42343,1.09677 -0.27073,0.51368 -0.6664,0.94406 -0.38873,0.42344 -0.88158,0.72886 -0.48591,0.30544 -1.06206,0.47898 -0.57616,0.1666 -1.22173,0.1666 -0.62475,0 -1.19395,-0.15966 -0.56227,-0.15966 -1.05513,-0.44426 -0.49285,-0.29155 -0.89546,-0.69416 -0.39567,-0.40956 -0.68028,-0.90241 -0.27766,-0.49979 -0.43732,-1.069 -0.15271,-0.56922 -0.15271,-1.18701 0,-0.60393 0.14577,-1.18008 0.14578,-0.58309 0.4165,-1.09677 0.27766,-0.51368 0.66639,-0.94406 0.38873,-0.43038 0.8677,-0.74275 0.48591,-0.31237 1.04818,-0.48591 0.56227,-0.17353 1.18701,-0.17353 1.00653,0 1.83258,0.31236 0.833,0.31238 1.41609,0.89547 0.59003,0.57616 0.90935,1.4022 0.32625,0.8191 0.32625,1.83258 z m -3.08207,0.18049 q 0,-0.2985 -0.0902,-0.57616 -0.0833,-0.28461 -0.24989,-0.49979 -0.1666,-0.22214 -0.4165,-0.35402 -0.24296,-0.13884 -0.56227,-0.13884 -0.32625,0 -0.58309,0.11801 -0.25684,0.118 -0.44427,0.32625 -0.18047,0.20131 -0.27766,0.47897 -0.0972,0.27073 -0.0972,0.57616 0,0.29154 0.0833,0.58309 0.0833,0.29155 0.24991,0.52756 0.1666,0.23602 0.40956,0.38179 0.24989,0.14577 0.57614,0.14577 0.32626,0 0.5831,-0.12495 0.26378,-0.13189 0.44426,-0.34707 0.18048,-0.22214 0.27767,-0.50674 0.0972,-0.28461 0.0972,-0.59003 z"
         style="font-style:normal;font-variant:normal;font-weight:normal;font-stretch:normal;font-size:medium;line-height:1.25;font-family:'Luckiest Guy';-inkscape-font-specification:'Luckiest Guy, Normal';font-variant-ligatures:normal;font-variant-caps:normal;font-variant-numeric:normal;font-feature-settings:normal;text-align:start;letter-spacing:0px;word-spacing:0px;writing-mode:lr-tb;text-anchor:start;fill:#ffffff;fill-opacity:1;stroke:none;stroke-width:0.35541055"
         id="path829-0" />
      <path
         inkscape:connector-curvature="0"
         d="m -534.47412,-510.19079 -1.62435,9.34338 -3.94281,0.0833 -0.84688,-4.7064 -0.84688,4.34544 -3.94282,0.13883 -1.63822,-8.92688 3.44304,-0.30544 0.69416,5.48387 0.93017,-5.06737 h 2.70722 l 1.08289,5.13678 0.55533,-5.83094 z"
         style="font-style:normal;font-variant:normal;font-weight:normal;font-stretch:normal;font-size:medium;line-height:1.25;font-family:'Luckiest Guy';-inkscape-font-specification:'Luckiest Guy, Normal';font-variant-ligatures:normal;font-variant-caps:normal;font-variant-numeric:normal;font-feature-settings:normal;text-align:start;letter-spacing:0px;word-spacing:0px;writing-mode:lr-tb;text-anchor:start;fill:#ffffff;fill-opacity:1;stroke:none;stroke-width:0.35541055"
         id="path831-6" />
      <g
         id="text817-6"
         style="font-style:normal;font-variant:normal;font-weight:normal;font-stretch:normal;font-size:360.04544067px;line-height:1.25;font-family:'Luckiest Guy';-inkscape-font-specification:'Luckiest Guy, Normal';font-variant-ligatures:normal;font-variant-caps:normal;font-variant-numeric:normal;font-feature-settings:normal;text-align:start;letter-spacing:0px;word-spacing:0px;writing-mode:lr-tb;text-anchor:start;fill:#828282;fill-opacity:1;stroke:none;stroke-width:9.00116158"
         transform="matrix(0.06548991,0.01213783,-0.01213783,0.06548991,-543.9746,-480.36883)"
         aria-label="!">
        <path
           id="path824"
           style="font-style:normal;font-variant:normal;font-weight:normal;font-stretch:normal;font-size:360.04544067px;font-family:'Luckiest Guy';-inkscape-font-specification:'Luckiest Guy, Normal';font-variant-ligatures:normal;font-variant-caps:normal;font-variant-numeric:normal;font-feature-settings:normal;text-align:start;writing-mode:lr-tb;text-anchor:start;fill:#828282;fill-opacity:1;stroke-width:9.00116158"
           d="m 159.39294,-518.69728 -14.41588,184.94522 H 79.929785 l -6.68053,-184.94522 z m -11.60303,239.09268 q 0,7.73535 -2.98866,14.41588 -2.98865,6.68053 -8.08695,11.60303 -4.9225,5.0983 -11.60303,7.91115 -6.68053,2.98866 -14.24008,2.98866 -7.73535,0 -14.415881,-2.98866 -6.680531,-2.81285 -11.778831,-7.91115 -4.922496,-4.9225 -7.911154,-11.60303 -2.812856,-6.68053 -2.812856,-14.41588 0,-7.55955 2.812856,-14.41588 2.988658,-6.85634 7.911154,-11.77883 5.0983,-5.0983 11.778831,-8.08696 6.680531,-2.98866 14.415881,-2.98866 7.55955,0 14.24008,2.98866 6.68053,2.98866 11.60303,8.08696 5.0983,4.92249 8.08695,11.77883 2.98866,6.85633 2.98866,14.41588 z"
           inkscape:connector-curvature="0" />
      </g>
      <path
         inkscape:export-ydpi="96"
         inkscape:export-xdpi="96"
         inkscape:connector-curvature="0"
         d="m -559.58149,-510.98307 c -0.0634,-0.16537 0.0218,-0.28651 0.21751,-0.30895 l 0.18424,-0.0211 0.0181,-1.00015 0.0181,-1.00015 h -0.19846 c -0.16727,0 -0.19845,-0.0254 -0.19845,-0.16183 0,-0.11926 0.0941,-0.23286 0.35746,-0.43173 0.37977,-0.28673 0.58071,-0.31422 0.61368,-0.084 l 0.0201,0.14094 0.27495,-0.15722 c 0.32019,-0.18309 0.73248,-0.21172 0.79259,-0.055 0.0219,0.057 0.0398,0.20262 0.0398,0.32349 0,0.24925 -0.16724,0.34969 -0.38671,0.23223 -0.1953,-0.10452 -0.36389,-0.0839 -0.55708,0.068 l -0.17448,0.13724 0.018,0.99407 0.018,0.99407 0.22954,0.0328 c 0.19238,0.0275 0.22955,0.0593 0.22955,0.19675 v 0.16396 l -0.73905,0.0186 c -0.61512,0.0155 -0.74551,0.002 -0.77762,-0.082 z m 4.06234,-0.43647 c 0.0788,-0.0405 0.22441,-0.14929 0.32361,-0.24181 0.16076,-0.14994 0.18035,-0.21422 0.18035,-0.59172 v -0.42351 l -0.41652,0.0389 c -0.76638,0.0716 -1.22307,0.36241 -1.22307,0.7789 0,0.31279 0.25636,0.51284 0.65717,0.51284 0.18437,0 0.39968,-0.0331 0.47846,-0.0736 z m -0.97167,0.55396 c -0.22091,-0.0616 -0.48842,-0.28345 -0.59847,-0.49626 -0.16512,-0.31929 -0.0951,-0.85382 0.1449,-1.10648 0.34095,-0.3589 0.96995,-0.58279 1.63731,-0.58279 0.26995,0 0.29189,-0.0127 0.29189,-0.169 0,-0.10084 -0.0804,-0.24944 -0.1994,-0.36841 -0.18502,-0.18502 -0.22664,-0.19742 -0.5774,-0.17205 -0.28181,0.0204 -0.43708,0.0724 -0.61019,0.20444 -0.1277,0.0974 -0.31234,0.1771 -0.41031,0.1771 -0.16573,0 -0.1767,-0.0171 -0.15777,-0.24594 0.0177,-0.21386 0.0546,-0.26264 0.28269,-0.37403 0.17769,-0.0867 0.44619,-0.13689 0.83211,-0.15538 0.48054,-0.0231 0.61406,-0.006 0.85259,0.10988 0.45344,0.21996 0.47532,0.2876 0.51235,1.58364 l 0.0328,1.14771 0.16395,0.0219 c 0.24663,0.033 0.30189,0.12076 0.16874,0.26791 -0.24115,0.26645 -0.71968,0.24837 -0.82597,-0.0312 l -0.0595,-0.15644 -0.31927,0.16565 c -0.31633,0.16412 -0.89557,0.25378 -1.16107,0.17971 z m 3.407,1.2676 c -0.0242,-0.0965 0.0452,-0.37159 0.18584,-0.73684 l 0.22448,-0.58288 -0.17709,-0.39447 c -0.93638,-2.08595 -1.0712,-2.34352 -1.26131,-2.4098 -0.1404,-0.049 -0.18385,-0.10185 -0.16903,-0.20578 0.0187,-0.13107 0.0628,-0.14109 0.69677,-0.15865 l 0.67681,-0.0187 -0.021,0.18214 c -0.014,0.12116 -0.0649,0.18995 -0.15215,0.20546 -0.0721,0.0128 -0.15651,0.0473 -0.1875,0.0766 -0.0531,0.0502 0.80341,2.03164 0.87857,2.03236 0.0781,6.9e-4 0.86845,-1.97494 0.81162,-2.02885 -0.0329,-0.0312 -0.11888,-0.0674 -0.19101,-0.0804 -0.0897,-0.0162 -0.13117,-0.0753 -0.13117,-0.18673 0,-0.16125 0.007,-0.16327 0.63944,-0.18183 l 0.63943,-0.0187 v 0.16796 c 0,0.11472 -0.0476,0.18606 -0.15025,0.22508 -0.0826,0.0314 -0.18404,0.0978 -0.22533,0.14758 -0.13363,0.16102 -1.39517,3.31764 -1.39517,3.491 0,0.12995 0.0408,0.17693 0.18035,0.2075 0.32109,0.0704 0.34432,0.0876 0.34432,0.25605 0,0.16531 -0.003,0.16601 -0.58901,0.16601 -0.56337,0 -0.59068,-0.007 -0.62764,-0.15396 z m -7.91348,-2.58609 c 0.33257,-0.21791 0.45047,-0.827 0.23176,-1.19726 -0.26659,-0.45129 -0.96679,-0.52502 -1.3497,-0.14212 -0.35848,0.35848 -0.30381,1.11812 0.0959,1.33201 0.37698,0.20176 0.72161,0.20424 1.02208,0.007 z m -1.19929,2.68166 c -0.32499,-0.0878 -0.65048,-0.24274 -0.74205,-0.35316 -0.0483,-0.0582 -0.0771,-0.21424 -0.0656,-0.35448 0.0292,-0.35401 0.2309,-0.37253 0.5527,-0.0507 0.44894,0.44894 1.05239,0.5528 1.6019,0.2757 0.24854,-0.12533 0.29581,-0.18093 0.3138,-0.36905 0.0116,-0.12182 -0.0118,-0.25462 -0.0522,-0.29512 -0.0442,-0.0444 -0.4524,-0.0867 -1.02723,-0.10644 -0.91571,-0.0315 -0.95908,-0.0393 -1.08452,-0.1943 -0.17445,-0.21563 -0.11513,-0.50867 0.14682,-0.72527 l 0.19999,-0.16537 -0.17398,-0.16255 c -0.25853,-0.24156 -0.35826,-0.4782 -0.35826,-0.85003 0,-0.8088 0.56149,-1.31142 1.46619,-1.31246 0.26203,-1.8e-4 0.34152,-0.0297 0.44848,-0.16563 0.18619,-0.23671 0.46059,-0.35941 0.80379,-0.35941 h 0.29838 v 0.27137 0.27136 l -0.34923,-0.041 c -0.23984,-0.0282 -0.38564,-0.0144 -0.46545,0.0439 -0.10722,0.0784 -0.098,0.0989 0.11977,0.26495 0.7528,0.57418 0.58242,1.74809 -0.30607,2.10876 -0.17336,0.0704 -0.4506,0.11217 -0.73698,0.11111 -0.57996,-0.002 -0.75156,0.11087 -0.51998,0.34244 0.0817,0.0817 0.25893,0.10305 0.85583,0.10305 0.87829,0 1.09648,0.0771 1.24863,0.44126 0.18527,0.44341 -0.0173,0.88519 -0.52495,1.14445 -0.29807,0.15224 -1.27704,0.22741 -1.64978,0.12666 z"
         style="fill:#e51836;fill-opacity:1;stroke-width:0.06558359"
         id="path4958" />
      <path
         id="rect912"
         d="m -559.80398,-509.68424 h 21.06085 v 10.79369 h -21.06085 z"
         style="fill:#ffffff;fill-opacity:1;stroke:none;stroke-width:1.63120437;stroke-miterlimit:4;stroke-dasharray:none;stroke-opacity:0"
         inkscape:connector-curvature="0" />
      <g
         transform="matrix(0.69650063,0,0,0.69650063,-248.72177,-135.1761)"
         id="g910">
        <g
           aria-label="wow"
           style="font-style:normal;font-variant:normal;font-weight:normal;font-stretch:normal;font-size:249.60127258px;line-height:1.25;font-family:'Luckiest Guy';-inkscape-font-specification:'Luckiest Guy, Normal';font-variant-ligatures:normal;font-variant-caps:normal;font-variant-numeric:normal;font-feature-settings:normal;text-align:start;letter-spacing:0px;word-spacing:0px;writing-mode:lr-tb;text-anchor:start;fill:#000000;fill-opacity:1;stroke:none;stroke-width:6.24004936"
           id="text817"
           transform="matrix(0.07127673,0,0,0.07127673,-420.82585,-505.46257)">
          <path
             inkscape:connector-curvature="0"
             d="m -264.25873,-446.91767 -28.51889,164.04459 -69.22536,1.46251 -14.86882,-82.63167 -14.86883,76.29414 -69.22535,2.43751 -28.76265,-156.73205 60.45031,-5.36253 12.18756,96.28174 16.33134,-88.9692 h 47.53149 l 19.0126,90.18796 9.75005,-102.37552 z"
             style="fill:#0a6db3;fill-opacity:1"
             id="path827" />
          <path
             inkscape:connector-curvature="0"
             d="m -106.55167,-371.11103 q 0,11.09068 -2.55939,21.45011 -2.55939,10.23755 -7.43441,19.25635 -4.75315,9.01879 -11.70006,16.57508 -6.82503,7.43442 -15.4782,12.79694 -8.5313,5.36253 -18.64697,8.40942 -10.11568,2.92502 -21.45011,2.92502 -10.96881,0 -20.96261,-2.80314 -9.87193,-2.80314 -18.52509,-7.80004 -8.65317,-5.11878 -15.72196,-12.18757 -6.94691,-7.19066 -11.94381,-15.84383 -4.87503,-8.77504 -7.67816,-18.76884 -2.68127,-9.9938 -2.68127,-20.84073 0,-10.60318 2.55939,-20.71886 2.55939,-10.23755 7.31254,-19.25635 4.87502,-9.01879 11.70006,-16.57508 6.82503,-7.55629 15.23445,-13.04069 8.53129,-5.48441 18.40322,-8.5313 9.87192,-3.04689 20.84073,-3.04689 17.67196,0 32.17516,5.48441 14.62508,5.4844 24.86263,15.72195 10.35943,10.11568 15.96571,24.61888 5.72815,14.38132 5.72815,32.17516 z m -54.11278,3.16877 q 0,-5.24065 -1.58438,-10.11568 -1.46251,-4.9969 -4.38752,-8.77504 -2.92502,-3.90002 -7.31254,-6.21566 -4.26564,-2.43751 -9.87192,-2.43751 -5.72816,0 -10.23756,2.07188 -4.50939,2.07189 -7.80004,5.72816 -3.16876,3.53439 -4.87502,8.40941 -1.70626,4.75315 -1.70626,10.11568 0,5.11878 1.46251,10.23755 1.46251,5.11878 4.38752,9.26255 2.92502,4.14377 7.19066,6.70316 4.38753,2.55939 10.11568,2.55939 5.72815,0 10.23755,-2.19376 4.63128,-2.31564 7.80004,-6.09378 3.16877,-3.90002 4.87503,-8.89692 1.70625,-4.99691 1.70625,-10.35943 z"
             style="fill:#fec422;fill-opacity:1"
             id="path829" />
          <path
             inkscape:connector-curvature="0"
             d="m 122.33075,-446.91767 -28.518896,164.04459 -69.225352,1.46251 -14.8688263,-82.63167 -14.8688258,76.29414 -69.2253529,2.43751 -28.762647,-156.73205 60.450309,-5.36253 12.187562,96.28174 16.331333,-88.9692 h 47.531492 l 19.012597,90.18796 9.75005,-102.37552 z"
             style="fill:#e51836;fill-opacity:1"
             id="path831" />
        </g>
      </g>
      <path
         inkscape:connector-curvature="0"
         id="rect843"
         d="m -517.0459,-515.01526 h 0.26326 v 16.32216 h -0.26326 z"
         style="fill:#c0c0c0;fill-opacity:1;stroke:none;stroke-width:1.63120437;stroke-miterlimit:4;stroke-dasharray:none;stroke-opacity:0" />
      <g
         transform="matrix(0.18377058,0,0,0.18377058,-478.10736,-415.6155)"
         id="text837"
         style="font-style:normal;font-variant:normal;font-weight:500;font-stretch:normal;font-size:21.78995514px;line-height:1.25;font-family:'Italia Book';-inkscape-font-specification:'Italia Book, Medium';font-variant-ligatures:normal;font-variant-caps:normal;font-variant-numeric:normal;font-feature-settings:normal;text-align:start;letter-spacing:0px;word-spacing:0px;writing-mode:lr-tb;text-anchor:start;fill:#000000;fill-opacity:1;stroke:none;stroke-width:0.54474586"
         aria-label="Win of the Week">
        <path
           id="path878"
           style="font-style:normal;font-variant:normal;font-weight:500;font-stretch:normal;font-size:21.78995514px;font-family:'Italia Book';-inkscape-font-specification:'Italia Book, Medium';font-variant-ligatures:normal;font-variant-caps:normal;font-variant-numeric:normal;font-feature-settings:normal;text-align:start;writing-mode:lr-tb;text-anchor:start;stroke-width:0.54474586"
           d="m -464.69867,-442.36826 c 0.28326,0 0.45758,-0.0218 0.54474,-0.39221 l 2.26616,-9.06463 h 0.0436 l 2.22257,8.80315 c 0.13074,0.45758 0.19611,0.65369 0.58833,0.65369 h 1.13308 c 0.28327,0 0.45759,-0.0218 0.54475,-0.39221 l 3.2467,-11.48331 c 0.26148,-0.89339 0.52296,-1.65604 1.35098,-1.65604 0.28327,0 0.37043,-0.0872 0.37043,-0.26148 v -0.63191 c 0,-0.2179 -0.13074,-0.32685 -0.41401,-0.32685 h -3.6825 c -0.28327,0 -0.41401,0.10895 -0.41401,0.32685 v 0.56654 c 0,0.19611 0.10895,0.32685 0.39222,0.32685 0.56654,0 1.11129,0.15253 1.11129,0.52296 0,0.30506 -0.10895,0.69728 -0.2179,1.11129 l -2.72375,9.7619 h -0.0436 l -2.41868,-9.50042 c -0.10895,-0.45759 -0.17432,-0.95876 -0.17432,-1.15487 0,-0.50117 0.23969,-0.74086 0.93697,-0.74086 0.34864,0 0.50116,-0.13074 0.50116,-0.30506 v -0.58833 c 0,-0.2179 -0.13074,-0.32685 -0.414,-0.32685 h -3.66072 c -0.28327,0 -0.41401,0.10895 -0.41401,0.32685 v 0.58833 c 0,0.17432 0.15253,0.30506 0.50117,0.30506 0.69728,0 0.93697,0.23969 0.93697,0.74086 0,0.19611 -0.0654,0.69728 -0.17432,1.15487 l -2.41868,9.50042 h -0.0436 l -2.70196,-9.47863 c -0.13074,-0.47938 -0.26148,-0.82802 -0.26148,-1.19845 0,-0.58833 0.30506,-0.71907 0.84981,-0.71907 0.41401,0 0.52296,-0.0872 0.52296,-0.32685 v -0.56654 c 0,-0.2179 -0.13074,-0.32685 -0.41401,-0.32685 h -3.81324 c -0.28327,0 -0.41401,0.10895 -0.41401,0.32685 v 0.54475 c 0,0.23969 0.0872,0.34864 0.47938,0.34864 0.74086,0 0.98055,0.6537 1.13308,1.19845 l 3.29028,11.67942 c 0.13074,0.45758 0.19611,0.65369 0.58833,0.65369 z"
           inkscape:connector-curvature="0" />
        <path
           id="path880"
           style="font-style:normal;font-variant:normal;font-weight:500;font-stretch:normal;font-size:21.78995514px;font-family:'Italia Book';-inkscape-font-specification:'Italia Book, Medium';font-variant-ligatures:normal;font-variant-caps:normal;font-variant-numeric:normal;font-feature-settings:normal;text-align:start;writing-mode:lr-tb;text-anchor:start;stroke-width:0.54474586"
           d="m -451.21103,-444.39472 c 0,0.76265 -0.15253,0.89339 -0.84981,0.89339 -0.34864,0 -0.50117,0.10895 -0.50117,0.4358 v 0.37043 c 0,0.21789 0.13074,0.32684 0.41401,0.32684 h 3.4646 c 0.28327,0 0.41401,-0.10895 0.41401,-0.32684 v -0.37043 c 0,-0.32685 -0.13074,-0.4358 -0.47938,-0.4358 -0.69728,0 -0.84981,-0.13074 -0.84981,-0.89339 v -6.16656 c 0,-0.4358 0.13074,-0.54475 0.56654,-0.82802 0.23969,-0.15253 0.30506,-0.26148 0.30506,-0.47938 v -0.41401 c 0,-0.1961 -0.10895,-0.28326 -0.34864,-0.28326 -0.28327,0 -0.54475,0.23968 -3.26849,1.56887 -0.17432,0.0872 -0.2179,0.2179 -0.2179,0.34864 v 0.47938 c 0,0.15253 0.0218,0.26148 0.19611,0.26148 0.17432,0 0.47938,-0.17432 0.74086,-0.17432 0.32685,0 0.41401,0.13074 0.41401,0.41401 z m -0.52296,-9.7619 c 0,0.2179 0.0654,0.39222 0.23969,0.39222 0.17432,0 0.4358,-0.15253 1.02413,-0.45759 0.69727,-0.34864 0.93696,-0.45759 0.93696,-0.84981 v -1.22024 c 0,-0.17432 -0.10895,-0.26148 -0.34864,-0.26148 -0.19611,0 -0.50117,0.17432 -1.0677,0.45759 -0.67549,0.30506 -0.78444,0.41401 -0.78444,0.71907 z"
           inkscape:connector-curvature="0" />
        <path
           id="path882"
           style="font-style:normal;font-variant:normal;font-weight:500;font-stretch:normal;font-size:21.78995514px;font-family:'Italia Book';-inkscape-font-specification:'Italia Book, Medium';font-variant-ligatures:normal;font-variant-caps:normal;font-variant-numeric:normal;font-feature-settings:normal;text-align:start;writing-mode:lr-tb;text-anchor:start;stroke-width:0.54474586"
           d="m -444.48543,-449.47178 c 0.74086,-0.80623 1.89573,-1.67783 3.24671,-1.67783 1.52529,0 2.13541,1.06771 2.13541,2.20079 v 4.5541 c 0,0.76265 -0.15253,0.89339 -0.84981,0.89339 -0.34864,0 -0.47938,0.10895 -0.47938,0.4358 v 0.37043 c 0,0.21789 0.13074,0.32684 0.41401,0.32684 h 3.44282 c 0.28327,0 0.414,-0.10895 0.414,-0.32684 v -0.37043 c 0,-0.32685 -0.13073,-0.4358 -0.47937,-0.4358 -0.69728,0 -0.84981,-0.13074 -0.84981,-0.89339 v -4.5541 c 0,-2.37511 -1.35098,-3.61713 -3.13776,-3.61713 -1.83035,0 -2.593,0.6319 -3.85682,1.83035 v -1.50351 c 0,-0.23968 -0.13074,-0.32684 -0.45759,-0.32684 -0.2179,0 -0.37043,0.0436 -0.50117,0.15253 l -1.74319,1.41634 c -0.19611,0.17432 -0.26148,0.2179 -0.26148,0.37043 v 0.4358 c 0,0.19611 0.0872,0.28327 0.23969,0.28327 0.13074,0 0.50117,-0.19611 0.71907,-0.19611 0.28327,0 0.39222,0.13074 0.39222,0.39222 v 5.31675 c 0,0.76265 -0.15253,0.89339 -0.84981,0.89339 -0.34864,0 -0.47938,0.10895 -0.47938,0.4358 v 0.37043 c 0,0.21789 0.13074,0.32684 0.41401,0.32684 h 3.44281 c 0.28327,0 0.41401,-0.10895 0.41401,-0.32684 v -0.37043 c 0,-0.32685 -0.13074,-0.4358 -0.47938,-0.4358 -0.69728,0 -0.84981,-0.13074 -0.84981,-0.89339 z"
           inkscape:connector-curvature="0" />
        <path
           id="path884"
           style="font-style:normal;font-variant:normal;font-weight:500;font-stretch:normal;font-size:21.78995514px;font-family:'Italia Book';-inkscape-font-specification:'Italia Book, Medium';font-variant-ligatures:normal;font-variant-caps:normal;font-variant-numeric:normal;font-feature-settings:normal;text-align:start;writing-mode:lr-tb;text-anchor:start;stroke-width:0.54474586"
           d="m -429.0149,-447.35816 c 0,3.02881 2.33152,5.2078 5.27317,5.2078 2.94164,0 5.27317,-2.17899 5.27317,-5.2078 0,-3.0288 -2.33153,-5.20779 -5.27317,-5.20779 -2.94165,0 -5.27317,2.17899 -5.27317,5.20779 z m 1.7432,-0.10895 c 0,-2.41868 1.39455,-3.96577 3.29028,-3.96577 2.33152,0 3.76966,2.30974 3.76966,4.53231 0,2.179 -1.24203,3.61714 -3.35565,3.61714 -2.179,0 -3.70429,-2.26616 -3.70429,-4.18368 z"
           inkscape:connector-curvature="0" />
        <path
           id="path886"
           style="font-style:normal;font-variant:normal;font-weight:500;font-stretch:normal;font-size:21.78995514px;font-family:'Italia Book';-inkscape-font-specification:'Italia Book, Medium';font-variant-ligatures:normal;font-variant-caps:normal;font-variant-numeric:normal;font-feature-settings:normal;text-align:start;writing-mode:lr-tb;text-anchor:start;stroke-width:0.54474586"
           d="m -413.83513,-450.58307 1.30739,-0.52296 c 0.30506,-0.10895 0.47938,-0.17432 0.47938,-0.52296 v -0.63191 c 0,-0.1961 -0.10895,-0.30505 -0.32685,-0.30505 -0.17432,0 -0.39222,0.0872 -0.74086,0.21789 l -0.71906,0.28327 v -2.48405 c 0,-0.91518 0.41401,-2.02647 1.59066,-2.02647 1.04592,0 1.15487,1.24203 1.9611,1.24203 0.74086,0 0.84981,-0.15253 0.84981,-0.58833 v -0.76265 c 0,-0.58832 -0.89339,-1.02412 -2.59301,-1.02412 -2.65837,0 -3.42102,1.91751 -3.42102,3.15954 v 2.98522 l -1.04592,0.52296 c -0.28327,0.13074 -0.34864,0.23969 -0.34864,0.41401 v 0.6537 c 0,0.23969 0.10895,0.32685 0.30506,0.32685 0.13074,0 0.28327,-0.0436 0.54475,-0.17432 l 0.54475,-0.26148 v 5.68718 c 0,0.78444 -0.15253,0.89339 -0.84981,0.89339 -0.47938,0 -0.61012,0.13074 -0.61012,0.41401 v 0.34864 c 0,0.21789 0.17432,0.37042 0.41401,0.37042 h 3.81324 c 0.2179,0 0.39222,-0.15253 0.39222,-0.37042 v -0.37043 c 0,-0.26148 -0.13074,-0.39222 -0.61012,-0.39222 -0.78443,0 -0.93696,-0.10895 -0.93696,-0.89339 z"
           inkscape:connector-curvature="0" />
        <path
           id="path888"
           style="font-style:normal;font-variant:normal;font-weight:500;font-stretch:normal;font-size:21.78995514px;font-family:'Italia Book';-inkscape-font-specification:'Italia Book, Medium';font-variant-ligatures:normal;font-variant-caps:normal;font-variant-numeric:normal;font-feature-settings:normal;text-align:start;writing-mode:lr-tb;text-anchor:start;stroke-width:0.54474586"
           d="m -403.81856,-444.06787 c 0,1.41634 0.61012,1.91751 1.83035,1.91751 0.41401,0 2.15721,-0.34864 2.15721,-0.93696 0,-0.17432 -0.19611,-0.61012 -0.41401,-0.61012 -0.13074,0 -0.69728,0.23969 -1.17666,0.23969 -0.56654,0 -0.78444,-0.50117 -0.78444,-0.95876 v -6.10119 l 1.61246,-0.76265 c 0.19611,-0.0872 0.28327,-0.2179 0.28327,-0.39222 v -0.54475 c 0,-0.23968 -0.13074,-0.34863 -0.34864,-0.34863 -0.0654,0 -0.23969,0.0654 -0.41401,0.13074 l -1.13308,0.50116 v -2.91985 c 0,-0.30506 -0.13074,-0.41401 -0.32685,-0.41401 -0.0872,0 -0.37043,0.0436 -0.56653,0.17432 l -0.30506,0.19611 c -0.32685,0.19611 -0.41401,0.32685 -0.41401,0.74086 v 2.61479 l -1.00234,0.45759 c -0.26148,0.10895 -0.30506,0.2179 -0.30506,0.37043 v 0.74086 c 0,0.23969 0.0436,0.37043 0.2179,0.37043 0.19611,0 0.32685,-0.0872 0.69728,-0.26148 l 0.39222,-0.19611 z"
           inkscape:connector-curvature="0" />
        <path
           id="path890"
           style="font-style:normal;font-variant:normal;font-weight:500;font-stretch:normal;font-size:21.78995514px;font-family:'Italia Book';-inkscape-font-specification:'Italia Book, Medium';font-variant-ligatures:normal;font-variant-caps:normal;font-variant-numeric:normal;font-feature-settings:normal;text-align:start;writing-mode:lr-tb;text-anchor:start;stroke-width:0.54474586"
           d="m -396.05384,-449.47178 c 0.74085,-0.80623 1.89572,-1.67783 3.2467,-1.67783 1.5253,0 2.13541,1.06771 2.13541,2.20079 v 4.5541 c 0,0.76265 -0.15253,0.89339 -0.8498,0.89339 -0.34864,0 -0.47938,0.10895 -0.47938,0.4358 v 0.37043 c 0,0.21789 0.13074,0.32684 0.41401,0.32684 h 3.44281 c 0.28327,0 0.41401,-0.10895 0.41401,-0.32684 v -0.37043 c 0,-0.32685 -0.13074,-0.4358 -0.47938,-0.4358 -0.69728,0 -0.84981,-0.13074 -0.84981,-0.89339 v -4.5541 c 0,-2.37511 -1.35098,-3.61713 -3.13775,-3.61713 -1.83036,0 -2.59301,0.6319 -3.85682,1.83035 v -4.96811 c 0,-0.2179 0.0654,-0.39222 0.1961,-0.47938 l 0.39222,-0.23969 c 0.13074,-0.0872 0.2179,-0.23969 0.2179,-0.4358 v -0.6319 c 0,-0.15253 -0.0654,-0.2179 -0.2179,-0.2179 -0.10895,0 -0.26148,0.0872 -0.414,0.15253 l -2.85449,1.43813 c -0.23969,0.10895 -0.30506,0.2179 -0.30506,0.34864 v 0.58833 c 0,0.17432 0.0436,0.32685 0.2179,0.32685 0.17432,0 0.6537,-0.30506 0.8716,-0.30506 0.15253,0 0.28327,0.13074 0.28327,0.4358 v 10.32844 c 0,0.76265 -0.15253,0.89339 -0.84981,0.89339 -0.34864,0 -0.47938,0.10895 -0.47938,0.4358 v 0.37043 c 0,0.21789 0.13074,0.32684 0.41401,0.32684 h 3.44281 c 0.28327,0 0.41401,-0.10895 0.41401,-0.32684 v -0.37043 c 0,-0.32685 -0.13074,-0.4358 -0.47938,-0.4358 -0.69727,0 -0.8498,-0.13074 -0.8498,-0.89339 z"
           inkscape:connector-curvature="0" />
        <path
           id="path892"
           style="font-style:normal;font-variant:normal;font-weight:500;font-stretch:normal;font-size:21.78995514px;font-family:'Italia Book';-inkscape-font-specification:'Italia Book, Medium';font-variant-ligatures:normal;font-variant-caps:normal;font-variant-numeric:normal;font-feature-settings:normal;text-align:start;writing-mode:lr-tb;text-anchor:start;stroke-width:0.54474586"
           d="m -381.24451,-442.15036 c 2.13542,0 4.31441,-1.41634 4.31441,-1.80856 0,-0.39222 -0.32685,-0.69728 -0.54474,-0.69728 -0.41401,0 -1.48172,1.0895 -3.50819,1.0895 -1.41634,0 -2.78911,-0.69728 -3.37744,-2.00468 l 5.40391,-2.70195 c 0.80623,-0.39222 1.48172,-0.6537 1.48172,-1.65604 0,-1.76499 -2.26616,-2.63658 -3.72609,-2.63658 -3.26849,0 -5.51286,2.11362 -5.51286,5.25137 0,3.18134 2.65838,5.16422 5.46928,5.16422 z m -3.55176,-4.64126 c -0.10895,-0.26148 -0.17432,-0.6537 -0.17432,-1.15486 0,-1.48172 1.19845,-3.39924 3.55176,-3.39924 0.78444,0 1.91752,0.37043 1.91752,1.32919 0,0.47938 -0.28327,0.74086 -0.89339,1.04592 z"
           inkscape:connector-curvature="0" />
        <path
           id="path894"
           style="font-style:normal;font-variant:normal;font-weight:500;font-stretch:normal;font-size:21.78995514px;font-family:'Italia Book';-inkscape-font-specification:'Italia Book, Medium';font-variant-ligatures:normal;font-variant-caps:normal;font-variant-numeric:normal;font-feature-settings:normal;text-align:start;writing-mode:lr-tb;text-anchor:start;stroke-width:0.54474586"
           d="m -364.17548,-442.36826 c 0.28327,0 0.45759,-0.0218 0.54475,-0.39221 l 2.26615,-9.06463 h 0.0436 l 2.22258,8.80315 c 0.13074,0.45758 0.19611,0.65369 0.58833,0.65369 h 1.13307 c 0.28327,0 0.45759,-0.0218 0.54475,-0.39221 l 3.24671,-11.48331 c 0.26148,-0.89339 0.52296,-1.65604 1.35097,-1.65604 0.28327,0 0.37043,-0.0872 0.37043,-0.26148 v -0.63191 c 0,-0.2179 -0.13074,-0.32685 -0.41401,-0.32685 h -3.6825 c -0.28327,0 -0.41401,0.10895 -0.41401,0.32685 v 0.56654 c 0,0.19611 0.10895,0.32685 0.39222,0.32685 0.56654,0 1.11129,0.15253 1.11129,0.52296 0,0.30506 -0.10895,0.69728 -0.2179,1.11129 l -2.72374,9.7619 h -0.0436 l -2.41869,-9.50042 c -0.10895,-0.45759 -0.17432,-0.95876 -0.17432,-1.15487 0,-0.50117 0.23969,-0.74086 0.93697,-0.74086 0.34864,0 0.50117,-0.13074 0.50117,-0.30506 v -0.58833 c 0,-0.2179 -0.13074,-0.32685 -0.41401,-0.32685 h -3.66071 c -0.28327,0 -0.41401,0.10895 -0.41401,0.32685 v 0.58833 c 0,0.17432 0.15253,0.30506 0.50117,0.30506 0.69727,0 0.93696,0.23969 0.93696,0.74086 0,0.19611 -0.0654,0.69728 -0.17432,1.15487 l -2.41868,9.50042 h -0.0436 l -2.70195,-9.47863 c -0.13074,-0.47938 -0.26148,-0.82802 -0.26148,-1.19845 0,-0.58833 0.30506,-0.71907 0.8498,-0.71907 0.41401,0 0.52296,-0.0872 0.52296,-0.32685 v -0.56654 c 0,-0.2179 -0.13074,-0.32685 -0.41401,-0.32685 h -3.81324 c -0.28327,0 -0.41401,0.10895 -0.41401,0.32685 v 0.54475 c 0,0.23969 0.0872,0.34864 0.47938,0.34864 0.74086,0 0.98055,0.6537 1.13308,1.19845 l 3.29028,11.67942 c 0.13074,0.45758 0.19611,0.65369 0.58833,0.65369 z"
           inkscape:connector-curvature="0" />
        <path
           id="path896"
           style="font-style:normal;font-variant:normal;font-weight:500;font-stretch:normal;font-size:21.78995514px;font-family:'Italia Book';-inkscape-font-specification:'Italia Book, Medium';font-variant-ligatures:normal;font-variant-caps:normal;font-variant-numeric:normal;font-feature-settings:normal;text-align:start;writing-mode:lr-tb;text-anchor:start;stroke-width:0.54474586"
           d="m -346.94235,-442.15036 c 2.13541,0 4.31441,-1.41634 4.31441,-1.80856 0,-0.39222 -0.32685,-0.69728 -0.54475,-0.69728 -0.41401,0 -1.48172,1.0895 -3.50818,1.0895 -1.41635,0 -2.78912,-0.69728 -3.37745,-2.00468 l 5.40391,-2.70195 c 0.80623,-0.39222 1.48172,-0.6537 1.48172,-1.65604 0,-1.76499 -2.26616,-2.63658 -3.72608,-2.63658 -3.2685,0 -5.51286,2.11362 -5.51286,5.25137 0,3.18134 2.65837,5.16422 5.46928,5.16422 z m -3.55176,-4.64126 c -0.10895,-0.26148 -0.17432,-0.6537 -0.17432,-1.15486 0,-1.48172 1.19844,-3.39924 3.55176,-3.39924 0.78444,0 1.91751,0.37043 1.91751,1.32919 0,0.47938 -0.28327,0.74086 -0.89338,1.04592 z"
           inkscape:connector-curvature="0" />
        <path
           id="path898"
           style="font-style:normal;font-variant:normal;font-weight:500;font-stretch:normal;font-size:21.78995514px;font-family:'Italia Book';-inkscape-font-specification:'Italia Book, Medium';font-variant-ligatures:normal;font-variant-caps:normal;font-variant-numeric:normal;font-feature-settings:normal;text-align:start;writing-mode:lr-tb;text-anchor:start;stroke-width:0.54474586"
           d="m -336.04737,-442.15036 c 2.13541,0 4.31441,-1.41634 4.31441,-1.80856 0,-0.39222 -0.32685,-0.69728 -0.54475,-0.69728 -0.41401,0 -1.48172,1.0895 -3.50818,1.0895 -1.41635,0 -2.78912,-0.69728 -3.37744,-2.00468 l 5.4039,-2.70195 c 0.80623,-0.39222 1.48172,-0.6537 1.48172,-1.65604 0,-1.76499 -2.26615,-2.63658 -3.72608,-2.63658 -3.26849,0 -5.51286,2.11362 -5.51286,5.25137 0,3.18134 2.65837,5.16422 5.46928,5.16422 z m -3.55176,-4.64126 c -0.10895,-0.26148 -0.17432,-0.6537 -0.17432,-1.15486 0,-1.48172 1.19844,-3.39924 3.55176,-3.39924 0.78444,0 1.91752,0.37043 1.91752,1.32919 0,0.47938 -0.28327,0.74086 -0.89339,1.04592 z"
           inkscape:connector-curvature="0" />
        <path
           id="path900"
           style="font-style:normal;font-variant:normal;font-weight:500;font-stretch:normal;font-size:21.78995514px;font-family:'Italia Book';-inkscape-font-specification:'Italia Book, Medium';font-variant-ligatures:normal;font-variant-caps:normal;font-variant-numeric:normal;font-feature-settings:normal;text-align:start;writing-mode:lr-tb;text-anchor:start;stroke-width:0.54474586"
           d="m -329.37965,-444.39472 c 0,0.76265 -0.15253,0.89339 -0.84981,0.89339 -0.34864,0 -0.47938,0.10895 -0.47938,0.4358 v 0.37043 c 0,0.21789 0.13074,0.32684 0.41401,0.32684 h 3.52998 c 0.28327,0 0.41401,-0.10895 0.41401,-0.32684 v -0.4358 c 0,-0.28327 -0.13074,-0.37043 -0.67549,-0.37043 -0.56654,0 -0.74086,-0.15253 -0.74086,-0.89339 v -1.39456 l 1.89572,-1.63425 4.1401,5.03348 c 0.15253,0.19611 0.23969,0.23969 0.45758,0.23969 0.19611,0 0.58833,-0.37043 0.58833,-0.50117 0,-0.0872 -0.13074,-0.21789 -0.45759,-0.71906 l -3.42102,-5.27317 2.6148,-2.22258 c 0.23969,-0.19611 0.56654,-0.26148 0.80622,-0.30506 0.23969,-0.0654 0.41401,-0.13074 0.41401,-0.34864 v -0.50117 c 0,-0.2179 -0.13074,-0.32685 -0.41401,-0.32685 h -4.03114 c -0.28327,0 -0.41401,0.10895 -0.41401,0.32685 v 0.47938 c 0,0.32685 0.32685,0.32685 0.6537,0.32685 0.32685,0 0.6537,0.0654 0.6537,0.45759 0,0.30506 -0.17432,0.54475 -0.45759,0.78444 l -3.0288,2.57121 v -8.30197 c 0,-0.2179 0.0654,-0.39222 0.19611,-0.47938 l 0.39222,-0.23969 c 0.13074,-0.0872 0.2179,-0.23969 0.2179,-0.4358 v -0.6319 c 0,-0.15253 -0.0654,-0.2179 -0.2179,-0.2179 -0.10895,0 -0.26148,0.0872 -0.41401,0.15253 l -2.85449,1.43813 c -0.23969,0.10895 -0.30506,0.2179 -0.30506,0.34864 v 0.58833 c 0,0.17432 0.0436,0.32685 0.2179,0.32685 0.17432,0 0.6537,-0.30506 0.8716,-0.30506 0.15253,0 0.28327,0.13074 0.28327,0.4358 z"
           inkscape:connector-curvature="0" />
      </g>
      <g
         id="text1014"
         style="font-style:normal;font-variant:normal;font-weight:500;font-stretch:normal;font-size:10.58333302px;line-height:1.25;font-family:'Italia Book';-inkscape-font-specification:'Italia Book, Medium';font-variant-ligatures:normal;font-variant-caps:normal;font-variant-numeric:normal;font-feature-settings:normal;text-align:start;letter-spacing:0px;word-spacing:0px;writing-mode:lr-tb;text-anchor:start;fill:#828282;fill-opacity:1;stroke:none;stroke-width:0.26458332"
         aria-label="advertiser category">
        <path
           id="path1016"
           style="font-style:normal;font-variant:normal;font-weight:500;font-stretch:normal;font-size:10.58333302px;font-family:'Italia Book';-inkscape-font-specification:'Italia Book, Medium';font-variant-ligatures:normal;font-variant-caps:normal;font-variant-numeric:normal;font-feature-settings:normal;text-align:start;writing-mode:lr-tb;text-anchor:start;fill:#828282;fill-opacity:1;stroke-width:0.26458332"
           d="m -499.87557,-507.12521 c 0,-1.27 -1.17475,-1.397 -1.87325,-1.397 -0.8255,0 -1.88383,0.26458 -1.88383,0.59266 v 0.46567 c 0,0.0953 0.0423,0.13758 0.254,0.13758 0.5715,0 0.61383,-0.64558 1.59808,-0.64558 0.60325,0 1.12183,0.28575 1.12183,0.83608 v 0.3175 c -1.68275,0 -3.29141,0.43392 -3.29141,1.88384 0,0.89958 0.64558,1.47108 1.53458,1.47108 0.73025,0 1.30175,-0.24342 1.78858,-0.68792 0.0529,0.381 0.13759,0.68792 0.58209,0.68792 0.29633,0 0.83608,-0.17992 0.83608,-0.4445 0,-0.15875 -0.0529,-0.22225 -0.17992,-0.22225 -0.127,0 -0.254,0.0106 -0.35983,0.0106 -0.0741,0 -0.127,-0.0741 -0.127,-0.20108 z m -0.78317,2.19075 c -0.21166,0.30691 -0.80433,0.78316 -1.43933,0.78316 -0.58208,0 -1.06892,-0.21166 -1.06892,-0.85725 0,-0.91016 1.06892,-1.23825 2.50825,-1.25941 z" />
        <path
           id="path1018"
           style="font-style:normal;font-variant:normal;font-weight:500;font-stretch:normal;font-size:10.58333302px;font-family:'Italia Book';-inkscape-font-specification:'Italia Book, Medium';font-variant-ligatures:normal;font-variant-caps:normal;font-variant-numeric:normal;font-feature-settings:normal;text-align:start;writing-mode:lr-tb;text-anchor:start;fill:#828282;fill-opacity:1;stroke-width:0.26458332"
           d="m -494.8379,-504.95563 c -0.20109,0.33867 -0.6985,0.80433 -1.524,0.80433 -0.3175,0 -1.51342,-0.24341 -1.51342,-1.88383 0,-1.19592 0.66675,-1.89442 1.68275,-1.89442 0.9525,0 1.35467,0.51859 1.35467,1.43934 z m 0,-3.21733 c -0.41275,-0.21167 -0.84667,-0.34925 -1.31234,-0.34925 -1.47108,0 -2.50825,1.12183 -2.50825,2.67758 0,1.34408 0.77259,2.38125 2.159,2.38125 0.70909,0 1.29117,-0.30692 1.70392,-0.81492 h 0.0212 v 0.55034 c 0,0.10583 0.0635,0.15875 0.20108,0.15875 h 1.00542 c 0.13758,0 0.20108,-0.0529 0.20108,-0.15875 v -0.21167 c 0,-0.13758 -0.0635,-0.17992 -0.32808,-0.17992 -0.27517,0 -0.35984,-0.0741 -0.35984,-0.43391 v -5.49275 c 0,-0.10584 0.0317,-0.1905 0.0952,-0.23284 l 0.1905,-0.11641 c 0.0635,-0.0423 0.10584,-0.11642 0.10584,-0.21167 v -0.30692 c 0,-0.0741 -0.0318,-0.10583 -0.10584,-0.10583 -0.0529,0 -0.127,0.0423 -0.20108,0.0741 l -1.38642,0.6985 c -0.11641,0.0529 -0.14816,0.10584 -0.14816,0.16934 v 0.28575 c 0,0.0847 0.0212,0.15875 0.10583,0.15875 0.0847,0 0.3175,-0.14817 0.42333,-0.14817 0.0741,0 0.13759,0.0635 0.13759,0.21167 z" />
        <path
           id="path1020"
           style="font-style:normal;font-variant:normal;font-weight:500;font-stretch:normal;font-size:10.58333302px;font-family:'Italia Book';-inkscape-font-specification:'Italia Book, Medium';font-variant-ligatures:normal;font-variant-caps:normal;font-variant-numeric:normal;font-feature-settings:normal;text-align:start;writing-mode:lr-tb;text-anchor:start;fill:#828282;fill-opacity:1;stroke-width:0.26458332"
           d="m -490.50254,-504.4053 h -0.0212 l -1.17475,-2.82575 c -0.0847,-0.21166 -0.127,-0.32808 -0.127,-0.45508 0,-0.0953 0.0953,-0.17992 0.29634,-0.17992 0.26458,0 0.30691,-0.0741 0.30691,-0.17991 v -0.21167 c 0,-0.10583 -0.0635,-0.15875 -0.20108,-0.15875 h -1.57692 c -0.13758,0 -0.20108,0.0529 -0.20108,0.15875 v 0.254 c 0,0.0847 0.0529,0.13758 0.20108,0.13758 0.15875,0 0.26459,0.0529 0.3175,0.17992 l 1.64042,3.90525 c 0.0741,0.17992 0.13758,0.21167 0.33867,0.21167 h 0.28575 c 0.254,0 0.30691,-0.0635 0.37041,-0.21167 l 1.57692,-3.76767 c 0.0953,-0.23283 0.32808,-0.3175 0.45508,-0.3175 0.13759,0 0.20109,-0.0423 0.20109,-0.14816 v -0.24342 c 0,-0.10583 -0.0635,-0.15875 -0.20109,-0.15875 h -1.57691 c -0.13759,0 -0.20109,0.0529 -0.20109,0.15875 v 0.23283 c 0,0.10584 0.0529,0.15875 0.22225,0.15875 0.21167,0 0.381,0.0847 0.381,0.21167 0,0.0953 -0.0318,0.21167 -0.127,0.4445 z" />
        <path
           id="path1022"
           style="font-style:normal;font-variant:normal;font-weight:500;font-stretch:normal;font-size:10.58333302px;font-family:'Italia Book';-inkscape-font-specification:'Italia Book, Medium';font-variant-ligatures:normal;font-variant-caps:normal;font-variant-numeric:normal;font-feature-settings:normal;text-align:start;writing-mode:lr-tb;text-anchor:start;fill:#828282;fill-opacity:1;stroke-width:0.26458332"
           d="m -484.87221,-503.46338 c 1.03717,0 2.0955,-0.68792 2.0955,-0.87842 0,-0.1905 -0.15875,-0.33866 -0.26458,-0.33866 -0.20108,0 -0.71967,0.52916 -1.70392,0.52916 -0.68791,0 -1.35466,-0.33866 -1.64041,-0.97366 l 2.62466,-1.31234 c 0.39159,-0.1905 0.71967,-0.3175 0.71967,-0.80433 0,-0.85725 -1.10067,-1.28058 -1.80975,-1.28058 -1.5875,0 -2.67758,1.02658 -2.67758,2.55058 0,1.54517 1.29116,2.50825 2.65641,2.50825 z m -1.72508,-2.25425 c -0.0529,-0.127 -0.0847,-0.3175 -0.0847,-0.56092 0,-0.71966 0.58209,-1.651 1.72509,-1.651 0.381,0 0.93133,0.17992 0.93133,0.64559 0,0.23283 -0.13758,0.35983 -0.43392,0.508 z" />
        <path
           id="path1024"
           style="font-style:normal;font-variant:normal;font-weight:500;font-stretch:normal;font-size:10.58333302px;font-family:'Italia Book';-inkscape-font-specification:'Italia Book, Medium';font-variant-ligatures:normal;font-variant-caps:normal;font-variant-numeric:normal;font-feature-settings:normal;text-align:start;writing-mode:lr-tb;text-anchor:start;fill:#828282;fill-opacity:1;stroke-width:0.26458332"
           d="m -480.81879,-507.18871 c 0.20108,-0.15875 0.51858,-0.47625 0.78317,-0.47625 0.30691,0 0.26458,0.17991 0.64558,0.17991 0.24342,0 0.30692,-0.0741 0.30692,-0.22225 0,-0.762 -0.0529,-0.81491 -0.32809,-0.81491 -0.635,0 -1.016,0.29633 -1.40758,0.60325 v -0.46567 c 0,-0.10583 -0.0529,-0.13758 -0.16933,-0.13758 -0.11642,0 -0.20109,0.0529 -0.3175,0.13758 l -0.81492,0.58208 c -0.10583,0.0741 -0.127,0.13759 -0.127,0.21167 v 0.24342 c 0,0.10583 0.0423,0.14816 0.16933,0.14816 0.127,0 0.23284,-0.0953 0.32809,-0.0953 0.10583,0 0.14816,0.0529 0.14816,0.23284 v 2.50825 c 0,0.35983 -0.0847,0.43391 -0.35983,0.43391 -0.26458,0 -0.32808,0.0423 -0.32808,0.17992 v 0.21167 c 0,0.10583 0.0635,0.15875 0.20108,0.15875 h 1.87325 c 0.13758,0 0.20108,-0.0529 0.20108,-0.15875 v -0.21167 c 0,-0.13758 -0.0635,-0.17992 -0.32808,-0.17992 -0.40217,0 -0.47625,-0.0529 -0.47625,-0.43391 z" />
        <path
           id="path1026"
           style="font-style:normal;font-variant:normal;font-weight:500;font-stretch:normal;font-size:10.58333302px;font-family:'Italia Book';-inkscape-font-specification:'Italia Book, Medium';font-variant-ligatures:normal;font-variant-caps:normal;font-variant-numeric:normal;font-feature-settings:normal;text-align:start;writing-mode:lr-tb;text-anchor:start;fill:#828282;fill-opacity:1;stroke-width:0.26458332"
           d="m -478.1837,-504.39471 c 0,0.68791 0.29633,0.93133 0.889,0.93133 0.20108,0 1.04775,-0.16933 1.04775,-0.45508 0,-0.0847 -0.0952,-0.29634 -0.20109,-0.29634 -0.0635,0 -0.33866,0.11642 -0.5715,0.11642 -0.27516,0 -0.381,-0.24342 -0.381,-0.46567 v -2.96333 l 0.78317,-0.37042 c 0.0953,-0.0423 0.13758,-0.10583 0.13758,-0.1905 v -0.26458 c 0,-0.11642 -0.0635,-0.16933 -0.16933,-0.16933 -0.0318,0 -0.11642,0.0317 -0.20108,0.0635 l -0.55034,0.24341 v -1.41816 c 0,-0.14817 -0.0635,-0.20109 -0.15875,-0.20109 -0.0423,0 -0.17991,0.0212 -0.27516,0.0847 l -0.14817,0.0953 c -0.15875,0.0953 -0.20108,0.15875 -0.20108,0.35983 v 1.27 l -0.48684,0.22225 c -0.127,0.0529 -0.14816,0.10584 -0.14816,0.17992 v 0.35983 c 0,0.11642 0.0212,0.17992 0.10583,0.17992 0.0953,0 0.15875,-0.0423 0.33867,-0.127 l 0.1905,-0.0953 z" />
        <path
           id="path1028"
           style="font-style:normal;font-variant:normal;font-weight:500;font-stretch:normal;font-size:10.58333302px;font-family:'Italia Book';-inkscape-font-specification:'Italia Book, Medium';font-variant-ligatures:normal;font-variant-caps:normal;font-variant-numeric:normal;font-feature-settings:normal;text-align:start;writing-mode:lr-tb;text-anchor:start;fill:#828282;fill-opacity:1;stroke-width:0.26458332"
           d="m -475.32257,-504.55346 c 0,0.37041 -0.0741,0.43391 -0.41275,0.43391 -0.16933,0 -0.24341,0.0529 -0.24341,0.21167 v 0.17992 c 0,0.10583 0.0635,0.15875 0.20108,0.15875 h 1.68275 c 0.13758,0 0.20108,-0.0529 0.20108,-0.15875 v -0.17992 c 0,-0.15875 -0.0635,-0.21167 -0.23283,-0.21167 -0.33867,0 -0.41275,-0.0635 -0.41275,-0.43391 v -2.99509 c 0,-0.21166 0.0635,-0.26458 0.27517,-0.40216 0.11641,-0.0741 0.14816,-0.127 0.14816,-0.23284 v -0.20108 c 0,-0.0952 -0.0529,-0.13758 -0.16933,-0.13758 -0.13758,0 -0.26458,0.11641 -1.5875,0.762 -0.0847,0.0423 -0.10583,0.10583 -0.10583,0.16933 v 0.23283 c 0,0.0741 0.0106,0.127 0.0952,0.127 0.0847,0 0.23283,-0.0847 0.35983,-0.0847 0.15875,0 0.20108,0.0635 0.20108,0.20108 z m -0.254,-4.74134 c 0,0.10584 0.0317,0.1905 0.11642,0.1905 0.0847,0 0.21167,-0.0741 0.49742,-0.22225 0.33866,-0.16933 0.45508,-0.22225 0.45508,-0.41275 v -0.59266 c 0,-0.0847 -0.0529,-0.127 -0.16933,-0.127 -0.0952,0 -0.24342,0.0847 -0.51859,0.22225 -0.32808,0.14816 -0.381,0.20108 -0.381,0.34925 z" />
        <path
           id="path1030"
           style="font-style:normal;font-variant:normal;font-weight:500;font-stretch:normal;font-size:10.58333302px;font-family:'Italia Book';-inkscape-font-specification:'Italia Book, Medium';font-variant-ligatures:normal;font-variant-caps:normal;font-variant-numeric:normal;font-feature-settings:normal;text-align:start;writing-mode:lr-tb;text-anchor:start;fill:#828282;fill-opacity:1;stroke-width:0.26458332"
           d="m -469.71704,-507.95071 c 0,-0.27517 -0.889,-0.5715 -1.651,-0.5715 -0.84667,0 -1.8415,0.381 -1.8415,1.37583 0,1.75683 2.99508,1.04775 2.99508,2.286 0,0.635 -0.67733,0.84667 -1.17475,0.84667 -0.99483,0 -0.91016,-0.68792 -1.61925,-0.68792 -0.22225,0 -0.29633,0.0318 -0.29633,0.1905 v 0.42333 c 0,0.23284 0.73025,0.62442 1.83092,0.62442 0.94191,0 2.04258,-0.33867 2.04258,-1.51342 0,-1.78858 -2.99508,-1.03716 -2.99508,-2.23308 0,-0.53975 0.4445,-0.762 0.93133,-0.762 0.91017,0 1.06892,0.64558 1.397,0.64558 0.33867,0 0.381,-0.0529 0.381,-0.21166 z" />
        <path
           id="path1032"
           style="font-style:normal;font-variant:normal;font-weight:500;font-stretch:normal;font-size:10.58333302px;font-family:'Italia Book';-inkscape-font-specification:'Italia Book, Medium';font-variant-ligatures:normal;font-variant-caps:normal;font-variant-numeric:normal;font-feature-settings:normal;text-align:start;writing-mode:lr-tb;text-anchor:start;fill:#828282;fill-opacity:1;stroke-width:0.26458332"
           d="m -466.06198,-503.46338 c 1.03716,0 2.0955,-0.68792 2.0955,-0.87842 0,-0.1905 -0.15875,-0.33866 -0.26459,-0.33866 -0.20108,0 -0.71966,0.52916 -1.70391,0.52916 -0.68792,0 -1.35467,-0.33866 -1.64042,-0.97366 l 2.62467,-1.31234 c 0.39158,-0.1905 0.71966,-0.3175 0.71966,-0.80433 0,-0.85725 -1.10066,-1.28058 -1.80975,-1.28058 -1.5875,0 -2.67758,1.02658 -2.67758,2.55058 0,1.54517 1.29117,2.50825 2.65642,2.50825 z m -1.72509,-2.25425 c -0.0529,-0.127 -0.0847,-0.3175 -0.0847,-0.56092 0,-0.71966 0.58208,-1.651 1.72508,-1.651 0.381,0 0.93133,0.17992 0.93133,0.64559 0,0.23283 -0.13758,0.35983 -0.43391,0.508 z" />
        <path
           id="path1034"
           style="font-style:normal;font-variant:normal;font-weight:500;font-stretch:normal;font-size:10.58333302px;font-family:'Italia Book';-inkscape-font-specification:'Italia Book, Medium';font-variant-ligatures:normal;font-variant-caps:normal;font-variant-numeric:normal;font-feature-settings:normal;text-align:start;writing-mode:lr-tb;text-anchor:start;fill:#828282;fill-opacity:1;stroke-width:0.26458332"
           d="m -462.00857,-507.18871 c 0.20108,-0.15875 0.51858,-0.47625 0.78317,-0.47625 0.30691,0 0.26458,0.17991 0.64558,0.17991 0.24342,0 0.30692,-0.0741 0.30692,-0.22225 0,-0.762 -0.0529,-0.81491 -0.32809,-0.81491 -0.635,0 -1.016,0.29633 -1.40758,0.60325 v -0.46567 c 0,-0.10583 -0.0529,-0.13758 -0.16933,-0.13758 -0.11642,0 -0.20109,0.0529 -0.3175,0.13758 l -0.81492,0.58208 c -0.10583,0.0741 -0.127,0.13759 -0.127,0.21167 v 0.24342 c 0,0.10583 0.0423,0.14816 0.16933,0.14816 0.127,0 0.23284,-0.0953 0.32809,-0.0953 0.10583,0 0.14816,0.0529 0.14816,0.23284 v 2.50825 c 0,0.35983 -0.0847,0.43391 -0.35983,0.43391 -0.26458,0 -0.32808,0.0423 -0.32808,0.17992 v 0.21167 c 0,0.10583 0.0635,0.15875 0.20108,0.15875 h 1.87325 c 0.13758,0 0.20108,-0.0529 0.20108,-0.15875 v -0.21167 c 0,-0.13758 -0.0635,-0.17992 -0.32808,-0.17992 -0.40217,0 -0.47625,-0.0529 -0.47625,-0.43391 z" />
        <path
           id="path1036"
           style="font-style:normal;font-variant:normal;font-weight:500;font-stretch:normal;font-size:10.58333302px;font-family:'Italia Book';-inkscape-font-specification:'Italia Book, Medium';font-variant-ligatures:normal;font-variant-caps:normal;font-variant-numeric:normal;font-feature-settings:normal;text-align:start;writing-mode:lr-tb;text-anchor:start;fill:#828282;fill-opacity:1;stroke-width:0.26458332"
           d="m -456.95685,-505.98221 c 0,1.42875 0.97367,2.51883 2.45534,2.51883 0.92075,0 1.778,-0.5715 1.778,-0.75142 0,-0.0952 -0.0741,-0.29633 -0.17992,-0.29633 -0.254,0 -0.67733,0.35983 -1.35467,0.35983 -1.09008,0 -1.85208,-0.83608 -1.85208,-1.91558 0,-0.84667 0.508,-1.86267 1.47108,-1.86267 0.80434,0 1.05834,0.6985 1.42875,0.6985 0.16934,0 0.27517,-0.0212 0.32809,-0.0635 0.0423,-0.0423 0.0741,-0.53975 0.0741,-0.73025 0,-0.35983 -1.0795,-0.49741 -1.42875,-0.49741 -1.61925,0 -2.71992,1.0795 -2.71992,2.54 z" />
        <path
           id="path1038"
           style="font-style:normal;font-variant:normal;font-weight:500;font-stretch:normal;font-size:10.58333302px;font-family:'Italia Book';-inkscape-font-specification:'Italia Book, Medium';font-variant-ligatures:normal;font-variant-caps:normal;font-variant-numeric:normal;font-feature-settings:normal;text-align:start;writing-mode:lr-tb;text-anchor:start;fill:#828282;fill-opacity:1;stroke-width:0.26458332"
           d="m -448.13713,-507.12521 c 0,-1.27 -1.17475,-1.397 -1.87325,-1.397 -0.8255,0 -1.88383,0.26458 -1.88383,0.59266 v 0.46567 c 0,0.0953 0.0423,0.13758 0.254,0.13758 0.5715,0 0.61383,-0.64558 1.59808,-0.64558 0.60325,0 1.12184,0.28575 1.12184,0.83608 v 0.3175 c -1.68275,0 -3.29142,0.43392 -3.29142,1.88384 0,0.89958 0.64558,1.47108 1.53458,1.47108 0.73025,0 1.30175,-0.24342 1.78859,-0.68792 0.0529,0.381 0.13758,0.68792 0.58208,0.68792 0.29633,0 0.83608,-0.17992 0.83608,-0.4445 0,-0.15875 -0.0529,-0.22225 -0.17991,-0.22225 -0.127,0 -0.254,0.0106 -0.35984,0.0106 -0.0741,0 -0.127,-0.0741 -0.127,-0.20108 z m -0.78316,2.19075 c -0.21167,0.30691 -0.80434,0.78316 -1.43934,0.78316 -0.58208,0 -1.06891,-0.21166 -1.06891,-0.85725 0,-0.91016 1.06891,-1.23825 2.50825,-1.25941 z" />
        <path
           id="path1040"
           style="font-style:normal;font-variant:normal;font-weight:500;font-stretch:normal;font-size:10.58333302px;font-family:'Italia Book';-inkscape-font-specification:'Italia Book, Medium';font-variant-ligatures:normal;font-variant-caps:normal;font-variant-numeric:normal;font-feature-settings:normal;text-align:start;writing-mode:lr-tb;text-anchor:start;fill:#828282;fill-opacity:1;stroke-width:0.26458332"
           d="m -446.45438,-504.39471 c 0,0.68791 0.29634,0.93133 0.889,0.93133 0.20109,0 1.04775,-0.16933 1.04775,-0.45508 0,-0.0847 -0.0953,-0.29634 -0.20108,-0.29634 -0.0635,0 -0.33867,0.11642 -0.5715,0.11642 -0.27517,0 -0.381,-0.24342 -0.381,-0.46567 v -2.96333 l 0.78317,-0.37042 c 0.0952,-0.0423 0.13758,-0.10583 0.13758,-0.1905 v -0.26458 c 0,-0.11642 -0.0635,-0.16933 -0.16933,-0.16933 -0.0318,0 -0.11642,0.0317 -0.20109,0.0635 l -0.55033,0.24341 v -1.41816 c 0,-0.14817 -0.0635,-0.20109 -0.15875,-0.20109 -0.0423,0 -0.17992,0.0212 -0.27517,0.0847 l -0.14816,0.0953 c -0.15875,0.0953 -0.20109,0.15875 -0.20109,0.35983 v 1.27 l -0.48683,0.22225 c -0.127,0.0529 -0.14817,0.10584 -0.14817,0.17992 v 0.35983 c 0,0.11642 0.0212,0.17992 0.10584,0.17992 0.0953,0 0.15875,-0.0423 0.33866,-0.127 l 0.1905,-0.0953 z" />
        <path
           id="path1042"
           style="font-style:normal;font-variant:normal;font-weight:500;font-stretch:normal;font-size:10.58333302px;font-family:'Italia Book';-inkscape-font-specification:'Italia Book, Medium';font-variant-ligatures:normal;font-variant-caps:normal;font-variant-numeric:normal;font-feature-settings:normal;text-align:start;writing-mode:lr-tb;text-anchor:start;fill:#828282;fill-opacity:1;stroke-width:0.26458332"
           d="m -441.38132,-503.46338 c 1.03717,0 2.0955,-0.68792 2.0955,-0.87842 0,-0.1905 -0.15875,-0.33866 -0.26458,-0.33866 -0.20109,0 -0.71967,0.52916 -1.70392,0.52916 -0.68792,0 -1.35467,-0.33866 -1.64042,-0.97366 l 2.62467,-1.31234 c 0.39158,-0.1905 0.71967,-0.3175 0.71967,-0.80433 0,-0.85725 -1.10067,-1.28058 -1.80975,-1.28058 -1.5875,0 -2.67759,1.02658 -2.67759,2.55058 0,1.54517 1.29117,2.50825 2.65642,2.50825 z m -1.72508,-2.25425 c -0.0529,-0.127 -0.0847,-0.3175 -0.0847,-0.56092 0,-0.71966 0.58208,-1.651 1.72508,-1.651 0.381,0 0.93134,0.17992 0.93134,0.64559 0,0.23283 -0.13759,0.35983 -0.43392,0.508 z" />
        <path
           id="path1044"
           style="font-style:normal;font-variant:normal;font-weight:500;font-stretch:normal;font-size:10.58333302px;font-family:'Italia Book';-inkscape-font-specification:'Italia Book, Medium';font-variant-ligatures:normal;font-variant-caps:normal;font-variant-numeric:normal;font-feature-settings:normal;text-align:start;writing-mode:lr-tb;text-anchor:start;fill:#828282;fill-opacity:1;stroke-width:0.26458332"
           d="m -437.78299,-506.60663 c 0,-0.84667 0.62442,-1.36525 1.34408,-1.36525 0.71967,0 1.34409,0.51858 1.34409,1.36525 0,0.84667 -0.62442,1.36525 -1.34409,1.36525 -0.71966,0 -1.34408,-0.51858 -1.34408,-1.36525 z m 0.8255,2.59292 c -0.3175,0 -0.58208,-0.10584 -0.58208,-0.35984 0,-0.30691 0.30691,-0.41275 0.34925,-0.41275 0.0423,0 0.43391,0.0952 0.67733,0.0952 1.15358,0 2.20133,-0.67733 2.20133,-1.91558 0,-0.80433 -0.40216,-1.37583 -1.12183,-1.72508 0.15875,-0.13759 0.32808,-0.30692 0.60325,-0.30692 0.21167,0 0.35983,0.127 0.59267,0.127 0.17991,0 0.27516,-0.0423 0.27516,-0.21167 v -0.39158 c 0,-0.17992 -0.0635,-0.21167 -0.43391,-0.21167 -0.61384,0 -1.03717,0.23284 -1.42875,0.85725 -0.16934,-0.0423 -0.3175,-0.0529 -0.508,-0.0529 -1.19592,0 -2.23309,0.71966 -2.23309,2.01083 0,0.73025 0.34925,1.143 0.93134,1.56633 -0.42334,0.254 -0.75142,0.35984 -0.75142,0.91017 0,0.48683 0.32808,0.70908 1.18533,0.70908 h 1.68275 c 0.508,0 0.62442,0.20109 0.62442,0.49742 0,0.8255 -1.09008,0.94192 -1.64042,0.94192 -0.39158,0 -0.79375,-0.15875 -1.12183,-0.41275 -0.27517,-0.21167 -0.33867,-0.58209 -0.73025,-0.58209 -0.26458,0 -0.34925,0.0635 -0.34925,0.23284 v 0.32808 c 0,0.37042 0.20108,0.49742 0.71967,0.70908 0.43391,0.17992 0.94191,0.27517 1.51341,0.27517 1.09009,0 2.39184,-0.33867 2.39184,-1.57692 0,-0.78316 -0.52917,-1.10066 -1.31234,-1.10066 z" />
        <path
           id="path1046"
           style="font-style:normal;font-variant:normal;font-weight:500;font-stretch:normal;font-size:10.58333302px;font-family:'Italia Book';-inkscape-font-specification:'Italia Book, Medium';font-variant-ligatures:normal;font-variant-caps:normal;font-variant-numeric:normal;font-feature-settings:normal;text-align:start;writing-mode:lr-tb;text-anchor:start;fill:#828282;fill-opacity:1;stroke-width:0.26458332"
           d="m -433.41208,-505.9928 c 0,1.47109 1.13242,2.52942 2.56117,2.52942 1.42875,0 2.56117,-1.05833 2.56117,-2.52942 0,-1.47108 -1.13242,-2.52941 -2.56117,-2.52941 -1.42875,0 -2.56117,1.05833 -2.56117,2.52941 z m 0.84667,-0.0529 c 0,-1.17475 0.67733,-1.92617 1.59808,-1.92617 1.13242,0 1.83092,1.12183 1.83092,2.20133 0,1.05834 -0.60325,1.75684 -1.62983,1.75684 -1.05834,0 -1.79917,-1.10067 -1.79917,-2.032 z" />
        <path
           id="path1048"
           style="font-style:normal;font-variant:normal;font-weight:500;font-stretch:normal;font-size:10.58333302px;font-family:'Italia Book';-inkscape-font-specification:'Italia Book, Medium';font-variant-ligatures:normal;font-variant-caps:normal;font-variant-numeric:normal;font-feature-settings:normal;text-align:start;writing-mode:lr-tb;text-anchor:start;fill:#828282;fill-opacity:1;stroke-width:0.26458332"
           d="m -426.14513,-507.18871 c 0.20108,-0.15875 0.51858,-0.47625 0.78317,-0.47625 0.30691,0 0.26458,0.17991 0.64558,0.17991 0.24342,0 0.30692,-0.0741 0.30692,-0.22225 0,-0.762 -0.0529,-0.81491 -0.32809,-0.81491 -0.635,0 -1.016,0.29633 -1.40758,0.60325 v -0.46567 c 0,-0.10583 -0.0529,-0.13758 -0.16933,-0.13758 -0.11642,0 -0.20109,0.0529 -0.3175,0.13758 l -0.81492,0.58208 c -0.10583,0.0741 -0.127,0.13759 -0.127,0.21167 v 0.24342 c 0,0.10583 0.0423,0.14816 0.16933,0.14816 0.127,0 0.23284,-0.0953 0.32809,-0.0953 0.10583,0 0.14816,0.0529 0.14816,0.23284 v 2.50825 c 0,0.35983 -0.0847,0.43391 -0.35983,0.43391 -0.26458,0 -0.32808,0.0423 -0.32808,0.17992 v 0.21167 c 0,0.10583 0.0635,0.15875 0.20108,0.15875 h 1.87325 c 0.13758,0 0.20108,-0.0529 0.20108,-0.15875 v -0.21167 c 0,-0.13758 -0.0635,-0.17992 -0.32808,-0.17992 -0.40217,0 -0.47625,-0.0529 -0.47625,-0.43391 z" />
        <path
           id="path1050"
           style="font-style:normal;font-variant:normal;font-weight:500;font-stretch:normal;font-size:10.58333302px;font-family:'Italia Book';-inkscape-font-specification:'Italia Book, Medium';font-variant-ligatures:normal;font-variant-caps:normal;font-variant-numeric:normal;font-feature-settings:normal;text-align:start;writing-mode:lr-tb;text-anchor:start;fill:#828282;fill-opacity:1;stroke-width:0.26458332"
           d="m -421.63679,-504.44763 -1.30175,-2.83633 c -0.0529,-0.127 -0.0953,-0.21167 -0.0953,-0.37042 0,-0.11642 0.13758,-0.21167 0.34925,-0.21167 0.16933,0 0.23283,-0.0529 0.23283,-0.16933 v -0.22225 c 0,-0.10583 -0.0635,-0.15875 -0.20108,-0.15875 h -1.62984 c -0.13758,0 -0.20108,0.0529 -0.20108,0.15875 v 0.22225 c 0,0.28575 0.40217,-0.0318 0.64558,0.51858 l 1.78859,3.94759 -0.47625,1.22766 c -0.0529,0.13759 -0.14817,0.30692 -0.14817,0.49742 v 0.34925 c 0,0.10583 0.0635,0.15875 0.20108,0.15875 h 1.40759 c 0.13758,0 0.20108,-0.0529 0.20108,-0.15875 v -0.24342 c 0,-0.127 -0.0529,-0.14816 -0.28575,-0.14816 -0.33867,0 -0.55033,-0.13759 -0.55033,-0.33867 0,-0.22225 0.0847,-0.46567 0.1905,-0.73025 l 1.82033,-4.45558 c 0.26458,-0.66675 0.70908,-0.28575 0.70908,-0.60325 v -0.24342 c 0,-0.10583 -0.0635,-0.15875 -0.20108,-0.15875 h -1.53458 c -0.13759,0 -0.20109,0.0529 -0.20109,0.15875 v 0.23283 c 0,0.10584 0.0423,0.15875 0.15875,0.15875 0.22225,0 0.41275,0.0635 0.41275,0.1905 0,0.0952 -0.0106,0.1905 -0.0741,0.32809 z" />
      </g>
    </g>
  </g>
</svg>
