<?xml version="1.0" encoding="UTF-8" standalone="no"?>
<!-- Created with Inkscape (http://www.inkscape.org/) -->

<svg
   xmlns:dc="http://purl.org/dc/elements/1.1/"
   xmlns:cc="http://creativecommons.org/ns#"
   xmlns:rdf="http://www.w3.org/1999/02/22-rdf-syntax-ns#"
   xmlns:svg="http://www.w3.org/2000/svg"
   xmlns="http://www.w3.org/2000/svg"
   xmlns:sodipodi="http://sodipodi.sourceforge.net/DTD/sodipodi-0.dtd"
   xmlns:inkscape="http://www.inkscape.org/namespaces/inkscape"
   width="99.5373"
   height="99.329773"
   viewBox="0 0 26.335911 26.281002"
   version="1.1"
   id="svg8"
   inkscape:version="0.92.3 (2405546, 2018-03-11)"
   sodipodi:docname="logo.svg">
  <defs
     id="defs2">
    <clipPath
       id="clipPath4534"
       clipPathUnits="userSpaceOnUse">
      <path
         inkscape:connector-curvature="0"
         id="path4532"
         d="M 0,239.486 H 409.207 V 0 H 0 Z" />
    </clipPath>
    <clipPath
       id="clipPath4629"
       clipPathUnits="userSpaceOnUse">
      <path
         inkscape:connector-curvature="0"
         id="path4627"
         d="M 0,239.486 H 409.207 V 0 H 0 Z" />
    </clipPath>
    <clipPath
       id="clipPath4534-7"
       clipPathUnits="userSpaceOnUse">
      <path
         inkscape:connector-curvature="0"
         id="path4532-0"
         d="M 0,239.486 H 409.207 V 0 H 0 Z" />
    </clipPath>
    <clipPath
       id="clipPath4534-7-2"
       clipPathUnits="userSpaceOnUse">
      <path
         inkscape:connector-curvature="0"
         id="path4532-0-1"
         d="M 0,239.486 H 409.207 V 0 H 0 Z" />
    </clipPath>
  </defs>
  <sodipodi:namedview
     id="base"
     pagecolor="#ffffff"
     bordercolor="#666666"
     borderopacity="1.0"
     inkscape:pageopacity="0.0"
     inkscape:pageshadow="2"
     inkscape:zoom="1.4"
     inkscape:cx="-67.83803"
     inkscape:cy="33.647268"
     inkscape:document-units="mm"
     inkscape:current-layer="layer1"
     showgrid="false"
     fit-margin-top="0"
     fit-margin-left="0"
     fit-margin-right="0"
     fit-margin-bottom="0"
     inkscape:window-width="2560"
     inkscape:window-height="1521"
     inkscape:window-x="-9"
     inkscape:window-y="-9"
     inkscape:window-maximized="1"
     units="px" />
  <metadata
     id="metadata5">
    <rdf:RDF>
      <cc:Work
         rdf:about="">
        <dc:format>image/svg+xml</dc:format>
        <dc:type
           rdf:resource="http://purl.org/dc/dcmitype/StillImage" />
        <dc:title></dc:title>
      </cc:Work>
    </rdf:RDF>
  </metadata>
  <g
     inkscape:label="Layer 1"
     inkscape:groupmode="layer"
     id="layer1"
     transform="translate(594.88535,-78.982757)">
    <g
       aria-label="Information Central"
       style="font-style:normal;font-variant:normal;font-weight:300;font-stretch:normal;font-size:102.50183868px;line-height:125%;font-family:'Proxima Nova';-inkscape-font-specification:'Proxima Nova, Light';font-variant-ligatures:normal;font-variant-caps:normal;font-variant-numeric:normal;font-feature-settings:normal;text-align:start;letter-spacing:0px;word-spacing:0px;writing-mode:lr-tb;text-anchor:start;fill:#165c9a;fill-opacity:1;stroke:none;stroke-width:1.23996711px;stroke-linecap:butt;stroke-linejoin:miter;stroke-opacity:1"
       id="text817"
       transform="matrix(0.52023288,0,0,0.52023288,-514.55029,83.588144)">
      <g
         aria-label="Information Central"
         style="font-style:normal;font-variant:normal;font-weight:300;font-stretch:normal;font-size:107.37786865px;line-height:125%;font-family:'Proxima Nova';-inkscape-font-specification:'Proxima Nova, Light';font-variant-ligatures:normal;font-variant-caps:normal;font-variant-numeric:normal;font-feature-settings:normal;text-align:start;letter-spacing:0px;word-spacing:0px;writing-mode:lr-tb;text-anchor:start;fill:#165c9a;fill-opacity:1;stroke:none;stroke-width:1.29896617px;stroke-linecap:butt;stroke-linejoin:miter;stroke-opacity:1"
         id="text834" />
    </g>
    <g
       id="g907"
       style="fill:#ffffff;fill-opacity:1">
      <path
         sodipodi:nodetypes="ccsscccccccccccccccccsscccssssccscccccccccccsscscssccc"
         inkscape:connector-curvature="0"
         id="path4540-1"
         d="m -577.81242,95.520842 c -1.55644,-0.418619 -2.90756,-1.754482 -3.47642,-3.437182 -0.38434,-1.136868 -0.35062,-2.911614 0.0772,-4.063389 0.52524,-1.414027 1.72671,-2.61494 3.06431,-3.062911 0.63843,-0.213812 2.21054,-0.21027 2.87155,0.0065 0.43524,0.142715 1.04389,0.497854 1.61516,0.942418 l 0.22332,0.17379 v -2.524202 -2.5242 h 1.29932 1.29931 v 7.186848 7.18685 h -1.29931 -1.29932 V 94.87563 94.345891 l -0.42153,0.3332 c -0.86643,0.684874 -1.71024,0.97313 -2.82352,0.964551 -0.38143,-0.0027 -0.88997,-0.05818 -1.13009,-0.12277 z m 2.8602,-2.553726 c 0.92064,-0.460733 1.49728,-1.384115 1.57532,-2.522541 0.0706,-1.030106 -0.17684,-1.786302 -0.79188,-2.420057 -1.01599,-1.04691 -2.77499,-1.096849 -3.83131,-0.10878 -0.92573,0.865913 -1.18959,2.439579 -0.62359,3.719124 0.24146,0.54585 0.90614,1.187723 1.45366,1.403788 0.6205,0.244865 1.65206,0.211591 2.2178,-0.07153 z m -14.21689,2.39669 c -1.3039,-0.283322 -2.70528,-1.424041 -3.34095,-2.719519 -0.42086,-0.857701 -0.57617,-1.579769 -0.57798,-2.687155 -0.003,-1.670787 0.49348,-2.935637 1.57626,-4.017831 0.7455,-0.745083 1.37535,-1.102344 2.27967,-1.293052 0.77555,-0.163551 1.35966,-0.152542 2.11171,0.0398 0.70268,0.179714 1.18487,0.427792 1.76594,0.908554 l 0.38573,0.319145 V 85.34046 84.767175 h 1.29933 1.29931 v 5.237874 5.237877 h -1.29931 -1.29933 v -0.527848 c 0,-0.290317 -0.0216,-0.527847 -0.048,-0.527847 -0.0264,0 -0.19251,0.123697 -0.36915,0.274885 -1.00324,0.858747 -2.42328,1.197193 -3.78324,0.901693 z m 2.01509,-2.396074 c 1.09579,-0.207813 1.89392,-0.984478 2.15603,-2.098032 0.44537,-1.892224 -0.5223,-3.553876 -2.23264,-3.833813 -1.56912,-0.256822 -2.9175,0.763864 -3.18002,2.407189 -0.30178,1.889088 0.88958,3.507116 2.64949,3.598352 0.0944,0.0049 0.36761,-0.02828 0.60714,-0.0737 z"
         style="fill:#ffffff;stroke-width:0.08120734;fill-opacity:1" />
      <g
         id="text881"
         style="font-style:normal;font-weight:normal;font-size:4.54200697px;line-height:1.25;font-family:sans-serif;letter-spacing:0px;word-spacing:0px;fill:#ffffff;fill-opacity:1;stroke:none;stroke-width:0.11355017"
         aria-label="testing">
        <path
           id="path883"
           style="stroke-width:0.11355017;fill:#ffffff;fill-opacity:1"
           d="m -587.14721,100.81973 q -0.11754,0.031 -0.25726,0.051 -0.13751,0.02 -0.24618,0.02 -0.37924,0 -0.57662,-0.20403 -0.19738,-0.20404 -0.19738,-0.65425 v -1.317357 h -0.28166 v -0.350408 h 0.28166 v -0.711907 h 0.41694 v 0.711907 h 0.8605 v 0.350408 h -0.8605 v 1.128849 q 0,0.195168 0.009,0.306048 0.009,0.10868 0.0621,0.20404 0.0488,0.0887 0.13307,0.13085 0.0865,0.0399 0.26169,0.0399 0.10202,0 0.21291,-0.0288 0.11089,-0.0311 0.15968,-0.051 h 0.0222 z" />
        <path
           id="path885"
           style="stroke-width:0.11355017;fill:#ffffff;fill-opacity:1"
           d="m -584.56794,99.64653 h -1.82523 q 0,0.228431 0.0688,0.3992 0.0688,0.16855 0.18851,0.27722 0.11533,0.10645 0.27279,0.15968 0.15968,0.0532 0.35041,0.0532 0.25283,0 0.50787,-0.0998 0.25726,-0.10202 0.36593,-0.1996 h 0.0222 v 0.45464 q -0.21069,0.0887 -0.43025,0.14859 -0.21956,0.0599 -0.46129,0.0599 -0.61655,0 -0.96252,-0.33266 -0.34597,-0.33489 -0.34597,-0.949212 0,-0.60767 0.33045,-0.964732 0.33266,-0.357062 0.8738,-0.357062 0.50122,0 0.77179,0.292746 0.27278,0.292747 0.27278,0.831666 z m -0.40585,-0.31936 q -0.002,-0.328231 -0.16633,-0.507871 -0.1619,-0.17964 -0.49457,-0.17964 -0.33488,0 -0.53448,0.197382 -0.19738,0.197382 -0.224,0.490129 z" />
        <path
           id="path887"
           style="stroke-width:0.11355017;fill:#ffffff;fill-opacity:1"
           d="m -582.16608,100.12779 q 0,0.33932 -0.28166,0.55666 -0.27944,0.21734 -0.76514,0.21734 -0.275,0 -0.50565,-0.0643 -0.22843,-0.0665 -0.38367,-0.14416 v -0.46795 h 0.0222 q 0.19739,0.14859 0.43912,0.2373 0.24174,0.0865 0.46352,0.0865 0.275,0 0.43025,-0.0887 0.15524,-0.0887 0.15524,-0.27944 0,-0.14637 -0.0843,-0.221774 -0.0843,-0.0754 -0.3238,-0.128631 -0.0887,-0.01996 -0.23287,-0.04657 -0.14193,-0.02661 -0.25948,-0.05766 -0.32601,-0.08649 -0.46351,-0.252827 -0.13529,-0.168551 -0.13529,-0.412506 0,-0.153027 0.0621,-0.288311 0.0643,-0.135285 0.19295,-0.241738 0.12419,-0.104236 0.31492,-0.164116 0.19295,-0.0621 0.43025,-0.0621 0.22178,0 0.44799,0.05544 0.22843,0.05323 0.37924,0.130849 v 0.445773 h -0.0222 q -0.15968,-0.117542 -0.38812,-0.197382 -0.22843,-0.08206 -0.44799,-0.08206 -0.22843,0 -0.38589,0.08871 -0.15746,0.08649 -0.15746,0.25948 0,0.153027 0.0954,0.230649 0.0931,0.07762 0.30162,0.126413 0.11532,0.02661 0.25726,0.05323 0.14416,0.02661 0.23952,0.04879 0.29053,0.06653 0.44799,0.228431 0.15747,0.164115 0.15747,0.434687 z" />
        <path
           id="path889"
           style="stroke-width:0.11355017;fill:#ffffff;fill-opacity:1"
           d="m -580.28097,100.81973 q -0.11755,0.031 -0.25727,0.051 -0.1375,0.02 -0.24617,0.02 -0.37924,0 -0.57662,-0.20403 -0.19738,-0.20404 -0.19738,-0.65425 v -1.317357 h -0.28166 v -0.350408 h 0.28166 v -0.711907 h 0.41694 v 0.711907 h 0.8605 v 0.350408 h -0.8605 v 1.128849 q 0,0.195168 0.009,0.306048 0.009,0.10868 0.0621,0.20404 0.0488,0.0887 0.13306,0.13085 0.0865,0.0399 0.2617,0.0399 0.10202,0 0.21291,-0.0288 0.11089,-0.0311 0.15968,-0.051 h 0.0222 z" />
        <path
           id="path891"
           style="stroke-width:0.11355017;fill:#ffffff;fill-opacity:1"
           d="m -579.32733,97.94993 h -0.47017 v -0.432466 h 0.47017 z m -0.0266,2.89198 h -0.41695 v -2.477255 h 0.41695 z" />
        <path
           id="path893"
           style="stroke-width:0.11355017;fill:#ffffff;fill-opacity:1"
           d="m -576.45309,100.84191 h -0.41694 v -1.410505 q 0,-0.170769 -0.02,-0.31936 -0.02,-0.150808 -0.0732,-0.235084 -0.0554,-0.09315 -0.15968,-0.137502 -0.10424,-0.04657 -0.27057,-0.04657 -0.17077,0 -0.35706,0.08428 -0.18629,0.08428 -0.35706,0.215124 v 1.849625 h -0.41695 v -2.477255 h 0.41695 v 0.275004 q 0.19516,-0.161898 0.40363,-0.252827 0.20847,-0.09093 0.42803,-0.09093 0.40142,0 0.61211,0.241737 0.21069,0.241738 0.21069,0.696382 z" />
        <path
           id="path895"
           style="stroke-width:0.11355017;fill:#ffffff;fill-opacity:1"
           d="m -573.64095,100.56025 q 0,0.62985 -0.28609,0.92482 -0.2861,0.29496 -0.88046,0.29496 -0.19738,0 -0.38589,-0.0288 -0.1863,-0.0266 -0.36816,-0.0776 v -0.42582 h 0.0222 q 0.10202,0.0399 0.3238,0.0976 0.22178,0.0599 0.44355,0.0599 0.21291,0 0.35263,-0.051 0.13972,-0.051 0.21734,-0.14194 0.0776,-0.0865 0.11089,-0.20847 0.0333,-0.12198 0.0333,-0.27279 v -0.22621 q -0.18851,0.15081 -0.3615,0.22621 -0.17077,0.0732 -0.4369,0.0732 -0.44356,0 -0.70526,-0.31936 -0.25948,-0.32158 -0.25948,-0.904854 0,-0.31936 0.0887,-0.550008 0.0909,-0.232867 0.24617,-0.401418 0.14415,-0.157462 0.35041,-0.243955 0.20625,-0.08871 0.41029,-0.08871 0.21512,0 0.35928,0.04436 0.14637,0.04214 0.30827,0.130849 l 0.0266,-0.106453 h 0.39033 z m -0.41694,-0.3992 v -1.350622 q -0.16634,-0.07541 -0.31049,-0.106454 -0.14194,-0.03327 -0.28388,-0.03327 -0.34375,0 -0.54113,0.230649 -0.19739,0.230648 -0.19739,0.669768 0,0.416942 0.14638,0.632065 0.14637,0.21513 0.48569,0.21513 0.18186,0 0.36372,-0.0688 0.18407,-0.071 0.3371,-0.18851 z" />
      </g>
    </g>
  </g>
</svg>
